<svg width="163" height="152" viewBox="0 0 163 152" fill="none" xmlns="http://www.w3.org/2000/svg">
<g id="Group 4008">
<path id="Group 249 (Traced)" d="M57.7312 22.0657L57.7312 22.0656C60.0142 10.9877 67.5343 2.91081 77.117 1.08943L77.0237 0.598308L77.117 1.08942C84.9589 -0.40131 93.5125 3.00131 98.6536 9.69197C101.289 13.1218 102.785 16.2301 103.919 20.6444L104.526 23.0051L104.605 33.9266C104.672 43.1271 104.626 45.2238 104.345 46.9298C104.017 48.9216 103.114 52.1259 102.402 53.8326L102.39 53.8629C102.242 54.2178 102.099 54.5588 102.145 54.9266C102.169 55.1201 102.239 55.2916 102.325 55.4544C102.408 55.6132 102.523 55.7921 102.655 55.9964C103.25 56.9135 103.704 58.169 103.949 59.5017C104.195 60.8333 104.225 62.2029 104.004 63.3392C103.424 66.329 101.799 68.7311 99.4755 70.105L98.2234 70.8452L97.9771 70.9908L97.9779 71.277L98.0467 97.2522L98.0467 97.2529L98.1158 114.599L98.1161 114.662L98.1318 114.722L98.6447 116.7C99.9501 121.735 102.407 125.352 105.874 127.125C108.14 128.284 109.796 128.687 113.149 128.927C114.729 129.041 115.734 129.188 116.516 129.46C117.277 129.725 117.852 130.117 118.55 130.777C118.998 131.201 119.65 132.128 119.967 132.804C120.765 134.509 120.779 136.962 119.995 138.707C119.352 140.142 118.231 141.348 116.944 142.012L117.173 142.457L116.944 142.012C116.526 142.228 115.876 142.394 115.026 142.486C114.186 142.578 113.187 142.594 112.097 142.536C109.917 142.42 107.407 142.007 105.13 141.327C102.395 140.511 98.3374 138.335 96.1961 136.537C91.2664 132.397 88.0368 126.56 86.3889 118.708L86.3873 118.701L86.3854 118.693L86.3854 118.693L86.3851 118.692L86.384 118.687L86.3794 118.668L86.3613 118.591C86.3456 118.523 86.323 118.423 86.2958 118.297C86.2414 118.046 86.1687 117.692 86.0961 117.283C85.9496 116.458 85.8079 115.433 85.8079 114.574V114.563V114.553V114.542V114.532V114.522V114.512V114.501V114.491V114.481V114.471V114.461V114.452V114.442V114.432V114.422V114.413V114.403V114.394V114.385V114.375V114.366V114.357V114.348V114.339V114.33V114.321V114.312V114.303V114.294V114.285V114.277V114.268V114.26V114.251V114.243V114.234V114.226V114.218V114.21V114.202V114.194V114.186V114.178V114.17V114.162V114.154V114.147V114.139V114.132V114.124V114.117V114.109V114.102V114.095V114.087V114.08V114.073V114.066V114.059V114.052V114.045V114.038V114.032V114.025V114.018V114.012V114.005V113.999V113.992V113.986V113.979V113.973V113.967V113.961V113.955V113.949V113.943V113.937V113.931V113.925V113.919V113.913V113.908V113.902V113.896V113.891V113.885V113.88V113.874V113.874V113.874V113.874V113.874V113.873V113.873V113.873V113.873V113.873V113.872V113.872V113.872V113.871V113.871V113.871V113.87V113.87V113.87V113.869V113.869V113.869V113.868V113.868V113.867V113.866V113.866V113.865V113.865V113.864V113.864V113.863V113.863V113.862V113.861V113.86V113.86V113.859V113.859V113.858V113.857V113.856V113.856V113.855V113.854V113.853V113.853V113.852V113.851V113.85V113.849V113.848V113.848V113.847V113.846V113.845V113.844V113.843V113.843V113.842V113.841V113.839V113.838V113.838V113.837V113.836V113.835V113.834V113.833V113.832V113.831V113.83V113.829V113.828V113.827V113.826V113.825V113.823V113.823V113.822V113.821V113.819V113.818V113.818V113.817V113.815V113.814V113.814V113.812V113.811V113.81V113.809V113.808V113.807V113.805V113.804V113.804V113.802V113.801V113.8V113.799V113.798V113.796V113.795V113.795V113.793V113.792V113.79V113.79V113.788V113.787V113.786V113.785V113.784V113.782V113.781V113.78V113.779V113.777V113.775V113.774V113.773V113.772V113.771V113.769V113.768V113.767V113.765V113.764V113.764V113.762V113.76V113.76V113.759V113.757V113.756V113.755V113.754V113.752V113.752V113.75V113.748V113.747V113.747V113.745V113.743V113.743V113.741V113.74V113.739V113.738V113.736V113.736V113.734V113.733V113.732V113.731V113.729V113.728V113.727V113.726V113.724V113.724V113.722V113.72V113.718V113.717V113.716V113.715V113.713V113.713V113.711V113.709V113.709V113.708V113.706V113.706V113.704V113.702V113.702V113.701V113.699V113.699V113.697V113.695V113.695V113.693V113.692V113.69V113.688V113.688V113.686V113.685V113.685V113.683V113.682V113.681V113.679V113.678V113.677V113.676V113.675V113.674V113.672V113.672V113.67V113.669V113.669V113.667V113.666V113.665V113.663V113.663V113.662V113.66V113.66V113.658V113.657V113.657V113.655V113.654V113.653V113.651V113.651V113.65V113.648V113.648V113.646V113.645V113.645V113.643V113.643V113.641V113.64V113.64V113.638V113.637V113.636V113.635V113.633V113.632V113.631V113.63V113.63V113.628V113.627V113.627V113.625V113.625V113.623V113.622V113.622V113.62V113.62V113.619V113.617V113.617V113.616V113.615V113.614V113.613V113.613V113.611V113.611V113.61V113.608V113.608V113.607V113.606V113.605V113.604V113.604V113.602V113.602V113.601V113.6V113.599V113.598V113.597V113.596V113.595V113.594V113.594V113.593V113.592V113.591V113.59V113.59V113.588V113.587V113.587V113.586V113.585V113.585V113.583V113.583V113.582V113.582V113.581V113.58V113.58V113.578V113.578V113.577V113.577V113.576V113.575V113.575V113.574V113.572V113.572V113.571V113.571V113.57V113.569V113.569V113.568V113.568V113.567V113.567V113.566V113.565V113.565V113.564V113.564V113.563V113.563V113.562V113.562V113.561V113.56V113.56V113.559V113.559V113.558V113.557V113.557V113.556V113.556V113.556V113.555V113.555V113.554V113.554V113.553V113.552V113.552V113.552V113.551V113.551V113.55V113.55V113.55V113.549V113.549V113.549V113.548V113.547V113.547V113.547V113.547V113.546V113.546V113.546V113.545V113.545V113.545V113.544V113.544V113.544V113.543V113.543V113.543V113.542V113.542V113.542V113.541V113.541V113.541V113.541V113.541V113.54V113.54V113.54V113.54V113.54V113.54V113.54V113.539V113.539V113.539V113.539V113.539V113.539V113.539V113.538V113.538V113.538L85.8027 113.538L85.6822 105.772C85.6822 105.771 85.6822 105.77 85.6822 105.769C85.6365 98.9204 85.5874 94.1746 85.5262 91.0979C85.4956 89.5601 85.4619 88.435 85.4238 87.6711C85.4048 87.2901 85.3844 86.9925 85.362 86.7759C85.3509 86.6683 85.3385 86.5731 85.324 86.4942C85.3135 86.4367 85.2913 86.3208 85.235 86.2196L84.8695 86.4226L85.235 86.2195C85.0342 85.8579 84.6482 85.4143 84.2565 85.0333C83.8634 84.6508 83.4059 84.2743 83.0316 84.0727L83.0314 84.0726C82.6074 83.8444 81.9596 83.7609 81.3917 83.7609C80.8238 83.7609 80.1759 83.8444 79.7519 84.0726L79.7518 84.0727C79.3774 84.2743 78.9199 84.6508 78.5268 85.0333C78.1352 85.4143 77.7492 85.8579 77.5483 86.2195C77.5092 86.29 77.4938 86.3578 77.4893 86.3775L77.489 86.3786C77.4819 86.4101 77.4767 86.4416 77.4728 86.4688C77.465 86.5241 77.4583 86.5908 77.4524 86.6643C77.4405 86.8128 77.4293 87.0163 77.4186 87.2681C77.3973 87.7733 77.3773 88.4923 77.3585 89.3963C77.3208 91.2053 77.2875 93.767 77.2573 96.8661C77.1969 103.065 77.1489 111.421 77.1036 120.22V120.223C77.1036 122.839 76.9775 124.792 76.4911 127.053L76.9799 127.158L76.4911 127.053C74.1711 137.844 68.8834 145.143 60.9104 148.744C58.378 149.888 55.1684 150.694 52.2694 151.037C50.8215 151.209 49.4637 151.263 48.3171 151.19C47.1573 151.116 46.265 150.914 45.7108 150.612C43.5431 149.431 42.2636 147.191 42.256 144.462L41.756 144.464L42.256 144.462C42.2538 143.677 42.2758 143.239 42.369 142.832C42.4622 142.424 42.6323 142.021 42.9749 141.318C43.7916 139.64 45.1034 138.439 46.5069 137.999C46.7096 137.935 47.1849 137.847 47.8192 137.761C48.4393 137.677 49.1739 137.598 49.8709 137.547C53.0203 137.315 54.8932 136.841 57.0625 135.696C60.3785 133.948 62.8052 130.378 64.0638 125.593L63.5852 125.467L64.0638 125.593L64.6589 123.33L64.675 123.269L64.6753 123.205L64.7375 111.5L64.7375 111.498L64.7997 71.1061L64.8001 70.8107L64.5417 70.6678L63.5431 70.1154C63.0594 69.8478 62.1452 69.0799 61.5462 68.4164C58.9215 65.5093 58.2342 61.3368 59.7715 57.3111L60.3346 55.8369L60.4114 55.6358L60.3182 55.4419L59.7807 54.3235C59.0848 52.875 58.2501 50.2228 57.7508 47.8415L57.7508 47.8415C57.3941 46.1409 57.3486 44.8642 57.3486 34.9232C57.3486 25.1959 57.3996 23.6743 57.7312 22.0657ZM72.6884 58.9128L72.301 59.0555L72.6884 58.9128C72.4063 58.147 71.7982 57.3153 71.129 56.6403C70.4664 55.9718 69.6672 55.3795 68.9559 55.1726L68.8235 55.6278L68.9559 55.1726C68.2516 54.9677 67.6103 54.8802 66.9693 54.9349C66.3278 54.9896 65.7158 55.1843 65.0668 55.5057C62.7696 56.6434 61.58 58.7109 61.5753 61.4481C61.5703 64.152 63.0178 66.6215 65.2895 67.6141C65.2895 67.6141 65.2895 67.6142 65.2895 67.6142L66.1566 67.9932L66.7467 67.222L66.1572 66.4879L66.1572 66.4878C65.7576 65.9903 65.6 65.2833 65.6907 64.6121C65.7822 63.9356 66.1095 63.3942 66.5586 63.1509L66.5586 63.1509C67.0261 62.8976 67.4515 62.8227 67.8293 62.8808C68.2067 62.9389 68.5855 63.1371 68.9472 63.5161C69.2536 63.837 69.3879 64.0223 69.4609 64.1973C69.532 64.3678 69.5641 64.5746 69.5641 64.9804C69.5641 65.2188 69.5304 65.4946 69.4747 65.7419C69.4159 66.0031 69.3455 66.1741 69.3026 66.2382L69.3025 66.2384C69.1939 66.401 69.1001 66.5751 69.051 66.7323C69.0303 66.7984 68.9948 66.9296 69.0194 67.0758C69.0332 67.1571 69.0724 67.2813 69.1831 67.3861C69.3013 67.4978 69.4433 67.5334 69.5566 67.5334C69.7319 67.5334 69.8877 67.4684 69.9955 67.4128C70.1134 67.352 70.2321 67.2712 70.3461 67.183C70.5749 67.0058 70.8251 66.7666 71.0701 66.501C71.5585 65.9715 72.0713 65.2875 72.3913 64.6716C73.2539 63.0112 73.3633 60.7451 72.6884 58.9128ZM70.0055 67.0306C70.0055 67.0304 70.0056 67.0303 70.0056 67.0301L70.0055 67.0306ZM97.38 55.1707L97.3799 55.1707C96.6804 54.9673 96.0413 54.8806 95.4012 54.9343C94.7609 54.9879 94.148 55.1798 93.4979 55.4969L93.7172 55.9463L93.4979 55.4969C91.0912 56.6712 89.8717 58.9836 90.0394 61.8731L90.0394 61.8731C90.1894 64.45 91.3163 66.3758 93.4069 67.493C93.69 67.6443 93.9227 67.7637 94.0987 67.8408C94.185 67.8786 94.2759 67.9144 94.3618 67.9369C94.4048 67.9481 94.4622 67.9603 94.5265 67.9633C94.585 67.966 94.6951 67.9636 94.8122 67.9053C94.9527 67.8353 95.0535 67.7092 95.092 67.5592C95.1241 67.4341 95.1043 67.3272 95.09 67.2714C95.0618 67.1605 95.0049 67.0621 94.9656 66.9988C94.8782 66.8579 94.739 66.6769 94.5725 66.4696L94.1917 66.7756L94.5725 66.4696C94.1821 65.9836 94.0285 65.2817 94.1222 64.61C94.2167 63.9328 94.5447 63.3915 94.9886 63.1509L94.7669 62.7417L94.9886 63.1509C95.4561 62.8976 95.8815 62.8227 96.2593 62.8808C96.6367 62.9389 97.0155 63.1371 97.3772 63.5161C98.0754 64.2475 98.213 65.1908 97.7156 66.1897L97.7155 66.1898L97.3875 66.849L96.6187 68.3936L98.0942 67.4994L98.8125 67.064L98.8126 67.064C99.409 66.7023 99.9804 66.0287 100.433 65.2851C100.892 64.5325 101.264 63.6498 101.43 62.8172L101.43 62.8171C101.724 61.331 101.502 59.563 100.847 58.2373L100.847 58.2372C100.557 57.6495 99.9466 56.965 99.3193 56.4074C98.6987 55.8557 97.9633 55.3405 97.38 55.1707ZM94.6147 66.9694C94.6161 66.9697 94.6162 66.9698 94.6149 66.9694L94.6147 66.9694Z" stroke="#96B3DE"/>
<rect id="Rectangle 226" x="106.119" y="69.8481" width="46.1111" height="5.22222" rx="2.61111" stroke="#96B3DE"/>
<rect id="Rectangle 225" x="106.119" y="82.2926" width="20.1111" height="5.22222" rx="2.61111" stroke="#96B3DE"/>
<rect id="Rectangle 227" x="106.119" y="94.7371" width="46.1111" height="5.22222" rx="2.61111" stroke="#96B3DE"/>
<rect id="Rectangle 228" x="106.119" y="107.182" width="55.6667" height="5.22222" rx="2.61111" stroke="#96B3DE"/>
<rect id="Rectangle 226_2" x="10.3398" y="69.8481" width="46.1111" height="5.22222" rx="2.61111" stroke="#96B3DE"/>
<rect id="Rectangle 225_2" x="0.785156" y="82.2926" width="55.6667" height="5.22222" rx="2.61111" stroke="#96B3DE"/>
<rect id="Rectangle 227_2" x="15.4512" y="94.7371" width="41" height="5.22222" rx="2.61111" stroke="#96B3DE"/>
<rect id="Rectangle 228_2" x="4.11914" y="107.182" width="52.3333" height="5.22222" rx="2.61111" stroke="#96B3DE"/>
</g>
</svg>
