<svg width="53" height="50" viewBox="0 0 53 50" fill="none" xmlns="http://www.w3.org/2000/svg">
<g clip-path="url(#clip0_2516_4618)">
<path fill-rule="evenodd" clip-rule="evenodd" d="M26.2321 -0.00439453C11.8976 -0.00439453 0.30957 11.4539 0.30957 25.6295C0.30957 36.9607 7.73443 46.5524 18.0347 49.9472C19.3225 50.2024 19.7942 49.3956 19.7942 48.717C19.7942 48.1227 19.7517 46.0857 19.7517 43.9633C12.5407 45.4914 11.0391 40.9076 11.0391 40.9076C9.88022 37.9368 8.16316 37.1732 8.16316 37.1732C5.803 35.6029 8.33508 35.6029 8.33508 35.6029C10.9531 35.7727 12.3269 38.2341 12.3269 38.2341C14.6441 42.1383 18.378 41.0352 19.8801 40.356C20.0945 38.7008 20.7817 37.555 21.5112 36.9185C15.7599 36.3242 9.70884 34.1175 9.70884 24.2711C9.70884 21.4701 10.7382 19.1784 12.3693 17.3961C12.112 16.7597 11.2105 14.1279 12.6272 10.6055C12.6272 10.6055 14.816 9.92633 19.7512 13.2368C21.8641 12.6756 24.0432 12.3902 26.2321 12.3878C28.4209 12.3878 30.6521 12.6852 32.7125 13.2368C37.6482 9.92633 39.837 10.6055 39.837 10.6055C41.2537 14.1279 40.3517 16.7597 40.0943 17.3961C41.7684 19.1784 42.7554 21.4701 42.7554 24.2711C42.7554 34.1175 36.7043 36.2815 30.91 36.9185C31.8545 37.7248 32.6695 39.2524 32.6695 41.6716C32.6695 45.1091 32.627 47.868 32.627 48.7164C32.627 49.3956 33.0993 50.2024 34.3866 49.9477C44.6868 46.5519 52.1116 36.9607 52.1116 25.6295C52.1541 11.4539 40.5236 -0.00439453 26.2321 -0.00439453Z" fill="white"/>
</g>
<defs>
<clipPath id="clip0_2516_4618">
<rect width="52" height="50" fill="white" transform="translate(0.30957 -0.00439453)"/>
</clipPath>
</defs>
</svg>
