<svg width="34" height="33" viewBox="0 0 34 33" fill="none" xmlns="http://www.w3.org/2000/svg">
<g clip-path="url(#clip0_2516_4608)">
<path fill-rule="evenodd" clip-rule="evenodd" d="M16.2565 0.892222C14.2582 1.25691 12.7011 2.87171 12.2297 5.06835C12.1595 5.39521 12.1497 5.70587 12.1497 7.60113C12.1497 9.53823 12.1584 9.80109 12.2337 10.1461C12.3363 10.6159 12.5084 11.1426 12.6548 11.4353L12.7642 11.6539L12.6496 11.942C12.3245 12.7595 12.4679 13.6147 13.0304 14.2129C13.1566 14.3472 13.3513 14.5056 13.4632 14.565L13.6664 14.673L13.6538 20.7443L13.6411 26.8157L13.52 27.2579C13.2683 28.1767 12.7874 28.8463 12.1458 29.1711C11.7198 29.3869 11.3531 29.4771 10.7218 29.5218C10.4339 29.5422 10.1154 29.5839 10.0141 29.6144C9.69629 29.7102 9.40987 29.9669 9.23408 30.3135C9.09433 30.5891 9.07656 30.6637 9.07747 30.9712C9.07909 31.5364 9.3567 32.009 9.83378 32.2587C10.3632 32.5358 11.9648 32.3539 13.0184 31.8969C14.6781 31.1772 15.7704 29.7199 16.2476 27.5888C16.3487 27.1375 16.3497 27.0984 16.3746 22.4498C16.393 19.0099 16.4136 17.7414 16.4523 17.6746C16.5194 17.5585 16.7324 17.3596 16.8601 17.2935C16.9872 17.2279 17.3041 17.2279 17.4312 17.2935C17.5589 17.3596 17.7719 17.5585 17.839 17.6746C17.8773 17.7407 17.8987 18.7715 17.9173 21.4493L17.9428 25.133L18.0633 25.6838C18.4023 27.2347 19.0691 28.397 20.0938 29.2232C20.5405 29.5834 21.3789 30.0151 21.9488 30.1783C22.8917 30.4484 24.0238 30.5064 24.4294 30.3054C24.7133 30.1647 24.9569 29.9117 25.0967 29.6126C25.268 29.2458 25.2654 28.7368 25.0902 28.3774C25.0212 28.2358 24.8813 28.0442 24.7795 27.9516C24.4819 27.6812 24.2629 27.6081 23.6174 27.5636C22.944 27.5172 22.6212 27.4407 22.1756 27.2219C21.5046 26.8923 21.0175 26.2145 20.7562 25.2467L20.6518 24.8601L20.6377 19.7832L20.6237 14.7063L20.8786 14.5616C21.3795 14.2772 21.7255 13.7822 21.8486 13.1737C21.9443 12.7004 21.82 12.0524 21.5595 11.6667C21.4497 11.5042 21.4481 11.4921 21.5165 11.3346C21.6647 10.9935 21.8504 10.3598 21.9184 9.96372C21.9774 9.61986 21.9863 9.19937 21.9727 7.40562L21.9565 5.259L21.8299 4.78598C21.5958 3.91107 21.2854 3.29143 20.7402 2.61007C19.6718 1.27506 17.893 0.593521 16.2565 0.892222ZM27.3555 9.81046C27.0682 9.89937 26.6833 10.2588 26.5445 10.5677L26.4368 10.8073V16.4239V22.0405L26.5376 22.2601C26.7785 22.7852 27.1543 23.0608 27.6809 23.0987C28.2373 23.1388 28.7184 22.8672 28.9821 22.3644L29.1043 22.1314V16.4239V10.7164L28.9701 10.4727C28.6444 9.88109 27.9918 9.61345 27.3555 9.81046ZM6.00081 11.5732C5.54959 11.7234 5.23645 12.0181 5.07934 12.4405L4.98213 12.7019L4.99411 18.1898L5.00614 23.6777L5.13183 23.9351C5.66615 25.0295 7.17647 24.958 7.60047 23.8182L7.69767 23.5568L7.68569 18.0462L7.67367 12.5355L7.5714 12.329C7.27901 11.7386 6.55326 11.3893 6.00081 11.5732ZM14.5858 11.6527C14.826 11.7198 15.1774 12.0602 15.2785 12.3237C15.4067 12.6577 15.3848 13.0719 15.2232 13.3705C15.1035 13.5918 14.8294 13.8771 14.7365 13.8771C14.7159 13.8771 14.7307 13.8316 14.7694 13.776C14.8081 13.7205 14.8398 13.5854 14.8398 13.4759C14.8398 13.3102 14.8141 13.2509 14.6861 13.1222C14.5135 12.9486 14.2995 12.917 14.0778 13.0324C13.8209 13.166 13.7614 13.5881 13.9652 13.8317L14.0852 13.9752L13.9087 13.9011C13.4891 13.725 13.2127 13.2815 13.2136 12.7857C13.2145 12.2835 13.4386 11.9157 13.8678 11.7116C14.1152 11.5939 14.3163 11.5775 14.5858 11.6527ZM20.3718 11.6524C20.5635 11.7059 20.9139 12.005 21.0148 12.2012C21.1377 12.4403 21.1805 12.764 21.1247 13.0341C21.063 13.3329 20.842 13.6814 20.6391 13.7995L20.4929 13.8846L20.5596 13.7558C20.6785 13.5266 20.6473 13.2972 20.4733 13.1222C20.3007 12.9486 20.0867 12.917 19.865 13.0324C19.6101 13.165 19.5486 13.5881 19.7494 13.8281C19.886 13.9915 19.8701 13.9991 19.6394 13.8808C19.2493 13.6806 19.0364 13.3374 19.0076 12.8629C18.9755 12.3318 19.2066 11.92 19.6546 11.7101C19.9026 11.594 20.1044 11.5777 20.3718 11.6524ZM31.7394 12.3257C31.4173 12.4559 31.1931 12.6595 31.022 12.9768L30.8676 13.2632L30.8544 15.1665C30.8395 17.3228 30.8465 17.382 31.1657 17.7882C31.5156 18.2334 32.1218 18.4033 32.679 18.2123C32.9881 18.1063 33.3331 17.7521 33.4604 17.4099C33.5542 17.1577 33.5578 17.0809 33.5578 15.2935C33.5578 13.2055 33.5493 13.1377 33.243 12.7478C32.8992 12.3103 32.2371 12.1244 31.7394 12.3257ZM10.3504 14.8044C9.93686 14.9585 9.657 15.2368 9.50142 15.6486C9.41859 15.8679 9.41434 16.0281 9.41434 18.924C9.41434 21.8741 9.41719 21.9765 9.50626 22.216C9.70696 22.7555 10.1439 23.0726 10.7255 23.1009C11.0382 23.1161 11.0873 23.1055 11.3571 22.9648C11.5596 22.8592 11.7005 22.7444 11.8153 22.5917C12.1351 22.1661 12.1271 22.2601 12.1271 18.9252C12.1271 15.5904 12.135 15.6843 11.8154 15.2589C11.4999 14.839 10.822 14.6287 10.3504 14.8044ZM22.9192 15.1707C22.5451 15.3049 22.2748 15.5717 22.0872 15.9919C22.0121 16.16 22.006 16.3687 22.006 18.7433V21.3128L22.1236 21.565C22.3462 22.0425 22.6347 22.2735 23.1452 22.3831C23.5896 22.4785 24.1727 22.235 24.4439 21.8407C24.7254 21.4315 24.7187 21.5061 24.7187 18.766C24.7187 16.4214 24.7133 16.2491 24.6324 16.0151C24.5177 15.6834 24.1321 15.2888 23.8177 15.1813C23.5516 15.0902 23.1565 15.0856 22.9192 15.1707ZM1.47957 17.6621C1.25048 17.7443 0.968852 17.9631 0.829056 18.1674C0.55959 18.5614 0.547518 18.6773 0.562122 20.7285L0.575324 22.5862L0.693464 22.8363C0.835024 23.1361 1.0789 23.3888 1.36202 23.5291C1.52564 23.6102 1.64713 23.6322 1.9317 23.6322C2.24818 23.6322 2.32369 23.6153 2.53569 23.4972C2.83884 23.3283 3.05685 23.0754 3.17648 22.7538C3.26532 22.5149 3.26853 22.4262 3.25597 20.5445L3.24285 18.5841L3.12065 18.3511C2.96846 18.0609 2.64772 17.7721 2.37324 17.678C2.13741 17.5972 1.68334 17.5891 1.47957 17.6621Z" fill="white"/>
</g>
<defs>
<clipPath id="clip0_2516_4608">
<path d="M0.557617 0.819336H33.5576V32.8193H0.557617V0.819336Z" fill="white"/>
</clipPath>
</defs>
</svg>
