<svg xmlns="http://www.w3.org/2000/svg" width="949" height="666" fill="none" viewBox="0 0 949 666"><rect width="946.772" height="663.366" x="0.864258" y="1.39038" fill="#fff" stroke="#707070" rx="23.5"/><path fill="#729ACC" d="M296.561 66.095a1.5 1.5 0 0 0 0-2.122l-9.546-9.546a1.5 1.5 0 0 0-2.122 2.122l8.486 8.485-8.486 8.485a1.501 1.501 0 0 0 2.122 2.121zM209.5 65.034v1.5h86v-3h-86zm-81.751 113.283a1.5 1.5 0 0 0 2.122 0l9.546-9.546a1.501 1.501 0 0 0-2.122-2.121l-8.485 8.485-8.485-8.485a1.5 1.5 0 0 0-2.122 2.121zm1.061-55.311h-1.5v54.25h3v-54.25zm245.427 55.311a1.5 1.5 0 0 0 2.121 0l9.546-9.546a1.5 1.5 0 1 0-2.121-2.121l-8.486 8.485-8.485-8.485a1.5 1.5 0 1 0-2.121 2.121zm1.06-55.311h-1.5v54.25h3v-54.25zm421.339 243.358h1.5v-1.5h-1.5zm-1.06 84.91a1.5 1.5 0 0 0 2.121 0l9.546-9.546a1.5 1.5 0 1 0-2.121-2.121l-8.486 8.485-8.485-8.485a1.5 1.5 0 1 0-2.121 2.121zm-323.453-84.91v1.5h324.513v-3H472.123zm324.513 0h-1.5v83.849h3v-83.849z"/><path fill="#729ACC" d="M598.136 366.364h1.5v-1.5h-1.5zm-1.06 68.453a1.5 1.5 0 0 0 2.121 0l9.546-9.546a1.5 1.5 0 1 0-2.121-2.121l-8.486 8.485-8.485-8.485a1.5 1.5 0 1 0-2.121 2.121zm-124.953-68.453v1.5h126.013v-3H472.123zm126.013 0h-1.5v67.392h3v-67.392zm-223.899-59.542a1.5 1.5 0 0 0 2.121 0l9.546-9.546a1.5 1.5 0 1 0-2.121-2.121l-8.486 8.485-8.485-8.485a1.5 1.5 0 1 0-2.121 2.121zm1.06-55.31h-1.5v54.25h3v-54.25zm-1.06 299.805a1.5 1.5 0 0 0 2.121 0l9.546-9.546a1.5 1.5 0 1 0-2.121-2.121l-8.486 8.485-8.485-8.485a1.5 1.5 0 1 0-2.121 2.121zm1.06-1.061h1.5v-1.53h-3v1.53zm0-4.592h1.5v-3.061h-3v3.061zm0-6.123h1.5v-3.061h-3v3.061zm0-6.123h1.5v-3.061h-3v3.061zm0-6.123h1.5v-3.061h-3v3.061zm0-6.123h1.5v-3.061h-3v3.061zm0-6.122h1.5v-3.062h-3v3.062zm0-6.123h1.5v-3.062h-3v3.062zm0-6.123h1.5v-3.062h-3v3.062zm0-6.123h1.5v-3.062h-3v3.062zm0-6.123h1.5v-3.062h-3v3.062zm0-6.123h1.5v-3.062h-3v3.062zm0-6.123h1.5v-3.062h-3v3.062zm0-6.123h1.5v-3.061h-3v3.061zm0-6.123h1.5v-3.061h-3v3.061zm0-6.123h1.5v-3.061h-3v3.061zm0-6.123h1.5v-3.061h-3v3.061zm0-6.123h1.5v-3.061h-3v3.061zm0-6.123h1.5v-3.061h-3v3.061zm0-6.123h1.5v-3.061h-3v3.061zm0-6.122h1.5v-1.531h-3v1.531zm245.427-251.012a1.5 1.5 0 0 0 2.121 0l9.546-9.546a1.5 1.5 0 1 0-2.122-2.121l-8.485 8.485-8.485-8.485a1.5 1.5 0 1 0-2.121 2.121zm1.06-55.311h-1.5v54.25h3v-54.25zM208.439 92.983a1.5 1.5 0 0 0 0 2.121l9.546 9.546a1.5 1.5 0 0 0 2.122-2.121l-8.486-8.485 8.486-8.485a1.501 1.501 0 0 0-2.122-2.122zm87.061 1.06v-1.5h-86v3h86z"/><rect width="147" height="73.0341" x="55.3101" y="41.4771" fill="#fff" stroke="#212121" stroke-width="4" rx="14"/><path fill="#572961" d="M88.885 82.79q0-.38-.117-.683a1.3 1.3 0 0 0-.41-.567q-.303-.263-.85-.517-.547-.255-1.416-.527a18 18 0 0 1-1.836-.703 7.5 7.5 0 0 1-1.523-.909 4.1 4.1 0 0 1-1.035-1.22q-.371-.694-.371-1.612 0-.889.39-1.611a3.7 3.7 0 0 1 1.094-1.25 5.2 5.2 0 0 1 1.66-.81 7.5 7.5 0 0 1 2.12-.284q1.571 0 2.743.567 1.172.566 1.817 1.552.654.987.654 2.256h-2.91q0-.624-.264-1.094-.255-.479-.781-.752-.517-.273-1.309-.273-.76 0-1.27.234-.507.225-.76.616-.255.38-.255.859 0 .36.176.654.186.294.547.547.36.254.889.479.527.225 1.22.44 1.162.35 2.041.79.889.44 1.485.987.595.547.898 1.24t.303 1.572q0 .927-.362 1.66-.36.733-1.044 1.24-.684.508-1.631.772-.948.264-2.12.264a8 8 0 0 1-2.08-.274 6.3 6.3 0 0 1-1.865-.85 4.3 4.3 0 0 1-1.328-1.445q-.498-.88-.498-2.08h2.94q0 .664.204 1.123.206.459.577.742.38.284.898.41.528.127 1.153.127.76 0 1.25-.214.497-.215.732-.596.244-.38.244-.86m10.01 3.916q-1.23 0-2.208-.39a4.85 4.85 0 0 1-1.66-1.104 4.9 4.9 0 0 1-1.035-1.63 5.5 5.5 0 0 1-.361-1.993v-.39q0-1.202.342-2.198.341-.996.976-1.728a4.3 4.3 0 0 1 1.563-1.123q.918-.4 2.07-.4 1.123 0 1.992.37.87.372 1.455 1.055.596.684.899 1.64.302.948.302 2.11v1.172h-8.398v-1.875h5.635v-.215q0-.586-.215-1.045a1.66 1.66 0 0 0-.625-.742q-.42-.273-1.074-.273-.556 0-.957.244t-.655.683a3.7 3.7 0 0 0-.37 1.036q-.118.585-.118 1.289v.39q0 .636.176 1.172.185.538.517.928.343.39.82.605.489.216 1.104.215.762 0 1.416-.293a3.06 3.06 0 0 0 1.143-.908l1.367 1.484a4.2 4.2 0 0 1-.908.918 4.9 4.9 0 0 1-1.367.723q-.801.273-1.827.273m9.149-8.457v8.262h-2.812V75.945h2.646zm3.184-2.373-.049 2.608a7 7 0 0 0-.498-.049 5 5 0 0 0-.517-.03q-.597 0-1.036.157a1.85 1.85 0 0 0-.722.44 1.9 1.9 0 0 0-.43.712q-.136.42-.156.957l-.567-.175q0-1.026.205-1.885.206-.87.596-1.514.4-.645.977-.996a2.5 2.5 0 0 1 1.318-.352q.234 0 .479.04.244.03.4.087m5.498 8.584 2.343-8.515h2.94l-3.565 10.566h-1.777zm-1.612-8.515 2.354 8.525.049 2.041h-1.787l-3.565-10.566zm11.523 0V86.51h-2.822V75.945zm-2.998-2.754q0-.615.43-1.016.43-.4 1.152-.4.714 0 1.143.4.44.4.439 1.016 0 .615-.439 1.016-.429.4-1.143.4-.721 0-1.152-.4a1.33 1.33 0 0 1-.43-1.016m10.088 11.318q.518 0 .918-.195.4-.206.625-.566.234-.372.244-.87h2.646a3.5 3.5 0 0 1-.595 1.983 4.1 4.1 0 0 1-1.573 1.357q-.986.489-2.207.489-1.23 0-2.148-.41a4.2 4.2 0 0 1-1.514-1.133 5 5 0 0 1-.908-1.7 7 7 0 0 1-.303-2.09v-.283q0-1.122.303-2.09a4.9 4.9 0 0 1 .908-1.699q.606-.732 1.514-1.142t2.129-.41q1.299 0 2.275.498a3.7 3.7 0 0 1 1.543 1.425q.567.918.576 2.178h-2.646a2.2 2.2 0 0 0-.225-.957 1.6 1.6 0 0 0-.605-.684q-.391-.263-.967-.263-.615 0-1.006.263-.39.255-.605.704a3.5 3.5 0 0 0-.303 1.005 8.5 8.5 0 0 0-.078 1.172v.284q0 .614.078 1.181t.293 1.006q.225.44.615.693.391.255 1.016.254m11.328 2.198q-1.231 0-2.207-.391a4.85 4.85 0 0 1-1.661-1.104 4.9 4.9 0 0 1-1.035-1.63 5.5 5.5 0 0 1-.361-1.993v-.39q0-1.202.342-2.198t.976-1.728q.645-.732 1.563-1.123.918-.4 2.07-.4 1.124 0 1.992.37.87.372 1.455 1.055.596.684.899 1.64.303.948.303 2.11v1.172h-8.399v-1.875h5.635v-.215q0-.586-.215-1.045a1.66 1.66 0 0 0-.625-.742q-.42-.273-1.074-.273-.556 0-.957.244t-.655.683a3.8 3.8 0 0 0-.371 1.036q-.117.585-.117 1.289v.39q0 .636.176 1.172.185.538.518.928.341.39.82.605.488.216 1.103.215.762 0 1.416-.293a3.06 3.06 0 0 0 1.143-.908l1.367 1.484a4.2 4.2 0 0 1-.908.918 4.9 4.9 0 0 1-1.367.723q-.801.273-1.826.273m17.264-7.403v2.207h-5.517v-2.207zm8.701-4.58-3.867 11.787h-3.115l5.283-14.218h1.982zm3.213 11.787-3.877-11.787-.312-2.431h2.002l5.312 14.218zm-.176-5.293v2.295h-7.509v-2.295z"/><path fill="#729ACC" d="M543.561 66.095a1.5 1.5 0 0 0 0-2.122l-9.546-9.546a1.5 1.5 0 0 0-2.122 2.122l8.486 8.485-8.486 8.485a1.501 1.501 0 0 0 2.122 2.121zM455.5 65.034v1.5h87v-3h-87zm-1.061 27.949a1.5 1.5 0 0 0 0 2.121l9.546 9.546a1.5 1.5 0 0 0 2.122-2.121l-8.486-8.485 8.486-8.485a1.501 1.501 0 0 0-2.122-2.122zm88.061 1.06v-1.5h-87v3h87z"/><rect width="147" height="73.0341" x="301.797" y="41.4771" fill="#fff" stroke="#212121" stroke-width="4" rx="14"/><rect width="147" height="73.0341" x="301.797" y="559.461" fill="#fff" stroke="#212121" stroke-width="4" rx="14"/><rect width="147" height="73.0341" x="548.284" y="41.4771" fill="#fff" stroke="#212121" stroke-width="4" rx="14"/><path fill="#572961" d="M335.704 82.79q0-.38-.117-.683a1.3 1.3 0 0 0-.41-.567q-.303-.263-.85-.517-.546-.255-1.416-.527a18 18 0 0 1-1.836-.703 7.6 7.6 0 0 1-1.523-.909 4.1 4.1 0 0 1-1.035-1.22q-.371-.694-.371-1.612 0-.889.39-1.611a3.7 3.7 0 0 1 1.094-1.25 5.2 5.2 0 0 1 1.66-.81 7.5 7.5 0 0 1 2.119-.284q1.573 0 2.745.567 1.171.566 1.816 1.552.654.987.654 2.256h-2.91q0-.624-.264-1.094a1.8 1.8 0 0 0-.781-.752q-.518-.273-1.308-.273-.762 0-1.27.234-.507.225-.762.616-.254.38-.254.859 0 .36.176.654.186.294.547.547t.889.479q.526.225 1.221.44 1.161.35 2.041.79.888.44 1.484.987t.898 1.24.303 1.572q0 .927-.361 1.66a3.4 3.4 0 0 1-1.045 1.24q-.684.508-1.631.772a8 8 0 0 1-2.119.264 8 8 0 0 1-2.08-.274 6.3 6.3 0 0 1-1.865-.85 4.3 4.3 0 0 1-1.329-1.445q-.498-.88-.498-2.08h2.94q0 .664.205 1.123t.576.742q.38.284.898.41.528.127 1.153.127.761 0 1.25-.214.498-.215.732-.596.244-.38.244-.86m10.01 3.916q-1.231 0-2.207-.39a4.8 4.8 0 0 1-1.66-1.104 4.9 4.9 0 0 1-1.036-1.63 5.5 5.5 0 0 1-.361-1.993v-.39q0-1.202.342-2.198t.976-1.728q.645-.732 1.563-1.123.918-.4 2.07-.4 1.123 0 1.992.37.87.372 1.456 1.055.595.684.898 1.64.303.948.303 2.11v1.172h-8.399v-1.875h5.635v-.215q0-.586-.215-1.045a1.66 1.66 0 0 0-.625-.742q-.42-.273-1.074-.273-.556 0-.957.244t-.654.683a3.7 3.7 0 0 0-.371 1.036q-.118.585-.118 1.289v.39q0 .636.176 1.172.186.538.518.928.342.39.82.605.488.216 1.104.215a3.4 3.4 0 0 0 1.416-.293 3.1 3.1 0 0 0 1.142-.908l1.367 1.484a4.2 4.2 0 0 1-.908.918 4.8 4.8 0 0 1-1.367.723q-.801.273-1.826.273m9.15-8.457v8.262h-2.813V75.945h2.647zm3.183-2.373-.048 2.608a7 7 0 0 0-.499-.049 5 5 0 0 0-.517-.03 3.1 3.1 0 0 0-1.035.157 1.84 1.84 0 0 0-.723.44 1.9 1.9 0 0 0-.43.712q-.137.42-.156.957l-.566-.175q0-1.026.205-1.885.205-.87.596-1.514.4-.645.976-.996a2.5 2.5 0 0 1 1.318-.352q.235 0 .479.04.244.03.4.087m5.498 8.584 2.344-8.515h2.939l-3.564 10.566h-1.778zm-1.611-8.515 2.353 8.525.049 2.041h-1.787l-3.565-10.566zm11.523 0V86.51h-2.823V75.945zm-2.998-2.754q0-.615.429-1.016.43-.4 1.153-.4.713 0 1.142.4.44.4.44 1.016 0 .615-.44 1.016-.43.4-1.142.4-.723 0-1.153-.4a1.33 1.33 0 0 1-.429-1.016m10.087 11.318q.517 0 .918-.195.4-.206.625-.566.235-.372.244-.87h2.647q-.01 1.114-.596 1.983a4.1 4.1 0 0 1-1.572 1.357q-.986.489-2.207.489-1.231 0-2.149-.41a4.2 4.2 0 0 1-1.513-1.133 5 5 0 0 1-.909-1.7 7 7 0 0 1-.302-2.09v-.283q0-1.122.302-2.09a4.85 4.85 0 0 1 .909-1.699q.605-.732 1.513-1.142.909-.41 2.129-.41 1.3 0 2.276.498a3.7 3.7 0 0 1 1.543 1.425q.566.918.576 2.178h-2.647a2.2 2.2 0 0 0-.224-.957 1.6 1.6 0 0 0-.606-.684q-.39-.263-.967-.263-.615 0-1.005.263a1.7 1.7 0 0 0-.606.704 3.5 3.5 0 0 0-.303 1.005 8.5 8.5 0 0 0-.078 1.172v.284q0 .614.078 1.181t.293 1.006q.225.44.616.693.39.255 1.015.254m11.328 2.198q-1.23 0-2.207-.391a4.8 4.8 0 0 1-1.66-1.104 4.9 4.9 0 0 1-1.035-1.63 5.5 5.5 0 0 1-.362-1.993v-.39q0-1.202.342-2.198.341-.996.977-1.728.644-.732 1.562-1.123.918-.4 2.07-.4 1.123 0 1.993.37a3.9 3.9 0 0 1 1.455 1.055q.595.684.898 1.64.303.948.303 2.11v1.172h-8.399v-1.875h5.635v-.215q0-.586-.215-1.045a1.65 1.65 0 0 0-.625-.742q-.42-.273-1.074-.273-.557 0-.957.244t-.654.683a3.7 3.7 0 0 0-.371 1.036q-.117.585-.117 1.289v.39q0 .636.175 1.172.186.538.518.928.342.39.82.605.489.216 1.104.215.762 0 1.416-.293a3.1 3.1 0 0 0 1.142-.908l1.367 1.484a4.2 4.2 0 0 1-.908.918 4.8 4.8 0 0 1-1.367.723q-.8.273-1.826.273m17.265-7.403v2.207h-5.518v-2.207zm8.486.967h-3.653l-.019-2.012h3.066q.811 0 1.328-.205.518-.215.772-.615.264-.41.264-.996 0-.664-.254-1.074-.244-.41-.772-.596-.517-.186-1.338-.186h-2.031V86.51h-2.93V72.293h4.961q1.24 0 2.217.234.986.234 1.67.713.684.478 1.045 1.21.361.724.361 1.72 0 .878-.4 1.62-.391.743-1.24 1.211-.84.47-2.198.518zm-.127 6.24h-4.326l1.142-2.285h3.184q.771 0 1.26-.244.488-.254.722-.684a2 2 0 0 0 .235-.986q0-.625-.215-1.084a1.45 1.45 0 0 0-.664-.703q-.46-.254-1.211-.254h-2.823l.02-2.012h3.516l.673.791q1.3-.02 2.09.46.8.468 1.162 1.22.371.752.371 1.611 0 1.368-.595 2.305-.596.927-1.748 1.397-1.143.468-2.793.468m164.537-3.72q0-.38-.117-.683a1.3 1.3 0 0 0-.41-.567q-.303-.263-.85-.517a12 12 0 0 0-1.416-.527 18 18 0 0 1-1.836-.703 7.5 7.5 0 0 1-1.523-.909 4.1 4.1 0 0 1-1.036-1.22q-.37-.694-.371-1.612 0-.889.391-1.611.39-.732 1.094-1.25a5.2 5.2 0 0 1 1.66-.81 7.5 7.5 0 0 1 2.119-.284q1.572 0 2.744.567 1.172.566 1.817 1.552.654.987.654 2.256h-2.91q0-.624-.264-1.094a1.8 1.8 0 0 0-.781-.752q-.517-.273-1.309-.273-.762 0-1.269.234-.509.225-.762.616-.254.38-.254.859 0 .36.176.654.186.294.547.547t.888.479 1.221.44q1.162.35 2.041.79a6.3 6.3 0 0 1 1.484.987q.596.547.899 1.24t.303 1.572q0 .927-.362 1.66a3.4 3.4 0 0 1-1.045 1.24 4.9 4.9 0 0 1-1.63.772q-.947.264-2.12.264a8 8 0 0 1-2.08-.274 6.3 6.3 0 0 1-1.865-.85 4.3 4.3 0 0 1-1.328-1.445q-.498-.88-.498-2.08h2.939q0 .664.205 1.123t.577.742q.38.284.898.41.528.127 1.152.127.762 0 1.25-.214.499-.215.733-.596.244-.38.244-.86m10.009 3.916q-1.23 0-2.207-.39a4.85 4.85 0 0 1-1.66-1.104 4.9 4.9 0 0 1-1.035-1.63 5.5 5.5 0 0 1-.361-1.993v-.39q0-1.202.341-2.198.342-.996.977-1.728.645-.732 1.563-1.123.918-.4 2.07-.4 1.124 0 1.992.37a3.9 3.9 0 0 1 1.455 1.055q.596.684.899 1.64.302.948.302 2.11v1.172h-8.398v-1.875h5.635v-.215q0-.586-.215-1.045a1.66 1.66 0 0 0-.625-.742q-.42-.273-1.074-.273-.558 0-.957.244-.401.244-.655.683a3.7 3.7 0 0 0-.371 1.036q-.117.585-.117 1.289v.39q0 .636.176 1.172.185.538.517.928.342.39.821.605.488.216 1.103.215.762 0 1.416-.293a3.06 3.06 0 0 0 1.143-.908l1.367 1.484a4.2 4.2 0 0 1-.908.918 4.9 4.9 0 0 1-1.367.723q-.801.273-1.827.273m9.15-8.457v8.262h-2.812V75.945h2.646zm3.184-2.373-.049 2.608a7 7 0 0 0-.498-.049 5 5 0 0 0-.518-.03 3.1 3.1 0 0 0-1.035.157 1.85 1.85 0 0 0-.722.44 1.9 1.9 0 0 0-.43.712q-.137.42-.156.957l-.567-.175q0-1.026.205-1.885.206-.87.596-1.514.4-.645.977-.996a2.5 2.5 0 0 1 1.318-.352q.234 0 .479.04.244.03.4.087m5.498 8.584 2.343-8.515h2.94l-3.565 10.566h-1.777zm-1.612-8.515 2.354 8.525.049 2.041h-1.788l-3.564-10.566zm11.523 0V86.51h-2.822V75.945zm-2.998-2.754q0-.615.43-1.016.43-.4 1.152-.4.713 0 1.143.4.44.4.439 1.016 0 .615-.439 1.016-.43.4-1.143.4-.722 0-1.152-.4a1.33 1.33 0 0 1-.43-1.016m10.088 11.318q.517 0 .918-.195.4-.206.625-.566.234-.372.244-.87h2.646a3.5 3.5 0 0 1-.595 1.983 4.1 4.1 0 0 1-1.573 1.357q-.986.489-2.207.489-1.23 0-2.148-.41a4.2 4.2 0 0 1-1.514-1.133 5 5 0 0 1-.908-1.7 7 7 0 0 1-.303-2.09v-.283q0-1.122.303-2.09a4.9 4.9 0 0 1 .908-1.699q.606-.732 1.514-1.142t2.129-.41q1.299 0 2.275.498a3.7 3.7 0 0 1 1.543 1.425q.567.918.576 2.178h-2.646a2.2 2.2 0 0 0-.225-.957 1.6 1.6 0 0 0-.605-.684q-.391-.263-.967-.263-.615 0-1.006.263-.39.255-.605.704a3.5 3.5 0 0 0-.303 1.005 8.5 8.5 0 0 0-.078 1.172v.284q0 .614.078 1.181t.293 1.006q.225.44.615.693.391.255 1.016.254m11.327 2.198q-1.23 0-2.207-.391a4.85 4.85 0 0 1-1.66-1.104 4.9 4.9 0 0 1-1.035-1.63 5.5 5.5 0 0 1-.361-1.993v-.39q0-1.202.342-2.198.341-.996.976-1.728.645-.732 1.563-1.123.918-.4 2.07-.4 1.124 0 1.992.37.87.372 1.455 1.055.596.684.899 1.64.303.948.302 2.11v1.172h-8.398v-1.875h5.635v-.215q0-.586-.215-1.045a1.66 1.66 0 0 0-.625-.742q-.42-.273-1.074-.273-.557 0-.957.244t-.655.683a3.8 3.8 0 0 0-.371 1.036q-.117.585-.117 1.289v.39q0 .636.176 1.172.186.538.517.928.342.39.821.605.488.216 1.103.215.762 0 1.416-.293a3.06 3.06 0 0 0 1.143-.908l1.367 1.484a4.2 4.2 0 0 1-.908.918 4.9 4.9 0 0 1-1.367.723q-.801.273-1.827.273m17.265-7.403v2.207h-5.517v-2.207zm11.162 2.49h2.92q-.088 1.435-.791 2.55-.693 1.111-1.943 1.738-1.24.624-2.989.625-1.366 0-2.451-.47a5.2 5.2 0 0 1-1.855-1.366q-.762-.89-1.162-2.149-.4-1.26-.401-2.822v-.986q0-1.563.41-2.823.42-1.269 1.192-2.158a5.3 5.3 0 0 1 1.865-1.367q1.084-.48 2.422-.479 1.777 0 2.998.645 1.23.645 1.904 1.777.683 1.133.821 2.578h-2.93q-.05-.86-.342-1.455a1.94 1.94 0 0 0-.889-.908q-.585-.312-1.562-.312-.733 0-1.279.273a2.37 2.37 0 0 0-.918.83q-.371.557-.557 1.406-.176.84-.176 1.973V79.9q0 1.104.166 1.943.166.83.508 1.406.351.567.898.86.557.283 1.338.283.918 0 1.514-.293t.908-.869q.322-.576.381-1.436m-322.768 503.26v.673q0 1.621-.439 2.911-.44 1.288-1.24 2.197a5.4 5.4 0 0 1-1.914 1.377q-1.104.478-2.452.478-1.337 0-2.451-.478a5.5 5.5 0 0 1-1.914-1.377q-.81-.909-1.26-2.197-.44-1.29-.439-2.911v-.673q0-1.632.439-2.911.44-1.288 1.241-2.197a5.4 5.4 0 0 1 1.914-1.387q1.113-.478 2.451-.478 1.347 0 2.451.478 1.113.479 1.914 1.387.811.909 1.25 2.197.45 1.28.449 2.911m-2.959.673v-.693q0-1.133-.205-1.992-.204-.86-.605-1.446a2.6 2.6 0 0 0-.977-.878 2.8 2.8 0 0 0-1.318-.303q-.742 0-1.318.303-.567.293-.967.878-.391.587-.596 1.446-.205.86-.205 1.992v.693q0 1.123.205 1.993.205.858.606 1.455.4.585.976.888a2.8 2.8 0 0 0 1.318.303q.743 0 1.319-.303t.967-.888q.39-.597.595-1.455.205-.87.205-1.993m12.031-7.48v14.248h-2.812v-11.006l-3.379 1.074v-2.217l5.889-2.099zm11.885 0v14.248h-2.813v-11.006l-3.379 1.074v-2.217l5.889-2.099zm8.28 13.057 2.803-9.375h3.018l-4.248 12.158a7 7 0 0 1-.371.859q-.225.46-.616.869-.38.42-.966.684-.576.264-1.416.264-.4 0-.655-.049a12 12 0 0 1-.605-.137v-2.061h.224q.118.01.225.01.557 0 .908-.127a1.27 1.27 0 0 0 .567-.39q.215-.255.341-.664zm-1.171-9.375 2.295 7.656.4 2.978-1.914.205-3.799-10.839zm20.634-3.682v14.248h-2.813v-11.006l-3.379 1.074v-2.217l5.889-2.099zm5.282 12.891q0-.625.43-1.045.44-.42 1.162-.42.723 0 1.153.42.44.42.439 1.045 0 .624-.439 1.044-.43.42-1.153.42t-1.162-.42a1.4 1.4 0 0 1-.43-1.044m15.518-7.002v2.46q0 1.602-.342 2.764-.342 1.152-.987 1.895a3.9 3.9 0 0 1-1.513 1.084 5.2 5.2 0 0 1-1.953.351 5.7 5.7 0 0 1-1.602-.215 4 4 0 0 1-1.338-.693 4.4 4.4 0 0 1-1.015-1.182q-.42-.722-.645-1.718t-.225-2.286v-2.46q0-1.602.342-2.745.352-1.152.987-1.884a3.9 3.9 0 0 1 1.523-1.075 5.2 5.2 0 0 1 1.953-.351 5.4 5.4 0 0 1 1.592.224q.742.216 1.338.674t1.015 1.182q.42.713.645 1.709.225.986.225 2.266m-2.823 2.832v-3.213q0-.772-.088-1.348a4 4 0 0 0-.244-.977 2.1 2.1 0 0 0-.41-.664 1.5 1.5 0 0 0-.556-.371 2 2 0 0 0-.694-.117q-.478 0-.849.186a1.6 1.6 0 0 0-.616.595q-.253.4-.39 1.075-.127.663-.127 1.621v3.213q0 .77.078 1.357.087.586.254 1.006.176.41.41.674.244.254.557.371.322.117.703.117.468 0 .83-.186a1.64 1.64 0 0 0 .625-.605q.264-.42.39-1.094.127-.674.127-1.64m-62.112 25.558 3.35-11.25h3.262l-4.952 14.219h-2.148zm-3.086-11.25 3.34 11.25.508 2.969h-2.168l-4.922-14.219zm15.683 14.414q-1.23 0-2.207-.39a4.85 4.85 0 0 1-1.66-1.104 4.9 4.9 0 0 1-1.035-1.631 5.5 5.5 0 0 1-.361-1.992v-.391q0-1.2.342-2.197a5.2 5.2 0 0 1 .976-1.728 4.3 4.3 0 0 1 1.563-1.123q.918-.4 2.07-.401 1.124 0 1.992.371.87.372 1.455 1.055a4.6 4.6 0 0 1 .899 1.641q.303.946.302 2.109v1.172h-8.398v-1.875h5.635v-.215a2.44 2.44 0 0 0-.215-1.045 1.66 1.66 0 0 0-.625-.742q-.42-.274-1.074-.274-.557 0-.957.245-.4.243-.655.683a3.8 3.8 0 0 0-.371 1.035 6.6 6.6 0 0 0-.117 1.289v.391q0 .635.176 1.172.186.537.517.928.342.39.821.605.488.215 1.103.215.762 0 1.416-.293a3.1 3.1 0 0 0 1.143-.908l1.367 1.484a4.2 4.2 0 0 1-.908.918 4.9 4.9 0 0 1-1.367.723q-.801.273-1.827.273m9.092-8.506v8.311h-2.813v-10.566h2.637zm-.41 2.657h-.762q0-1.173.303-2.11.303-.947.849-1.611a3.65 3.65 0 0 1 1.299-1.025 3.9 3.9 0 0 1 1.699-.362q.743 0 1.358.215t1.055.684q.449.468.683 1.24.244.77.244 1.885v6.738h-2.832v-6.748q0-.703-.195-1.094a1.1 1.1 0 0 0-.576-.547q-.372-.166-.918-.166a2.06 2.06 0 0 0-.987.225q-.41.225-.683.625-.264.39-.401.918a4.5 4.5 0 0 0-.136 1.133m15.507 3.349v-12.695h2.832v15h-2.549zm-6.68-2.851v-.205q0-1.212.274-2.198.273-.995.801-1.709a3.64 3.64 0 0 1 1.299-1.103q.771-.391 1.757-.391.928 0 1.621.391.703.39 1.192 1.113.498.713.801 1.69.302.966.439 2.119v.449a11.4 11.4 0 0 1-.439 2.051 6.2 6.2 0 0 1-.801 1.66 3.54 3.54 0 0 1-1.192 1.094q-.702.39-1.64.39-.987 0-1.758-.4a3.7 3.7 0 0 1-1.289-1.123 5.4 5.4 0 0 1-.791-1.699 8 8 0 0 1-.274-2.129m2.813-.205v.205q0 .654.098 1.22.107.567.341 1.006a1.9 1.9 0 0 0 .625.674q.392.234.948.234.722 0 1.191-.322.469-.332.713-.908.254-.576.293-1.328v-1.279a4.6 4.6 0 0 0-.176-1.104 2.4 2.4 0 0 0-.41-.85 1.8 1.8 0 0 0-.664-.546 2.04 2.04 0 0 0-.928-.196q-.547 0-.937.254a1.9 1.9 0 0 0-.635.674 3.6 3.6 0 0 0-.352 1.016q-.107.575-.107 1.25m8.847.185v-.205q0-1.163.332-2.139a5 5 0 0 1 .967-1.709 4.3 4.3 0 0 1 1.563-1.123q.927-.41 2.128-.41t2.139.41a4.3 4.3 0 0 1 1.572 1.123q.645.723.977 1.709.332.976.332 2.139v.205q0 1.152-.332 2.139a5 5 0 0 1-.977 1.709 4.3 4.3 0 0 1-1.562 1.123q-.928.4-2.129.4t-2.139-.4a4.4 4.4 0 0 1-1.572-1.123 5.1 5.1 0 0 1-.967-1.709 6.7 6.7 0 0 1-.332-2.139m2.813-.205v.205q0 .664.117 1.24.117.577.371 1.016.264.43.684.674t1.025.244q.586 0 1.006-.244.42-.245.674-.674a3.4 3.4 0 0 0 .371-1.016q.126-.576.127-1.24v-.205q0-.644-.127-1.211a3.2 3.2 0 0 0-.381-1.015 1.9 1.9 0 0 0-.674-.704q-.42-.254-1.016-.254-.595 0-1.015.254a2 2 0 0 0-.674.704 3.3 3.3 0 0 0-.371 1.015 6 6 0 0 0-.117 1.211m12.138-2.881v8.262h-2.812v-10.566h2.646zm3.184-2.373-.049 2.608a7 7 0 0 0-.498-.049 5 5 0 0 0-.518-.03q-.596 0-1.035.157a1.85 1.85 0 0 0-.723.439 1.9 1.9 0 0 0-.429.713q-.137.42-.157.957l-.566-.176q0-1.025.205-1.884.205-.87.596-1.514.4-.645.976-.996a2.5 2.5 0 0 1 1.319-.352q.234 0 .478.039.244.03.401.088M184.007 228.084v14.218h-2.92v-14.218zm4.375 0v2.295H176.78v-2.295zm4.023 5.957v8.261h-2.813v-10.566h2.647zm3.184-2.373-.049 2.607a7 7 0 0 0-.498-.049 5 5 0 0 0-.518-.029q-.595 0-1.035.156a1.85 1.85 0 0 0-.723.44 1.9 1.9 0 0 0-.429.712 3.5 3.5 0 0 0-.157.958l-.566-.176q0-1.026.205-1.885a5.2 5.2 0 0 1 .596-1.514q.4-.643.976-.996a2.5 2.5 0 0 1 1.319-.351q.234 0 .478.039.244.029.401.088m7.099 8.252v-4.707q0-.508-.166-.87a1.24 1.24 0 0 0-.518-.576q-.342-.205-.889-.205-.468 0-.81.166a1.17 1.17 0 0 0-.527.459 1.27 1.27 0 0 0-.186.693h-2.812q0-.673.312-1.279t.908-1.064a4.5 4.5 0 0 1 1.416-.733 6.1 6.1 0 0 1 1.856-.263q1.23 0 2.187.41.958.41 1.504 1.23.557.82.557 2.051v4.522q0 .869.107 1.425.108.548.313.957v.166h-2.842a4 4 0 0 1-.313-1.074 9 9 0 0 1-.097-1.308m.371-4.053.019 1.592h-1.572q-.556 0-.967.127a1.8 1.8 0 0 0-.674.361q-.263.225-.39.527a1.8 1.8 0 0 0-.117.664q0 .361.166.655.166.282.478.449.313.156.733.156.635 0 1.103-.254.47-.253.723-.625.264-.371.273-.703l.742 1.191a5 5 0 0 1-.429.831 4 4 0 0 1-.674.81 3.5 3.5 0 0 1-.986.615q-.577.235-1.368.235-1.005 0-1.826-.401a3.3 3.3 0 0 1-1.289-1.123 2.95 2.95 0 0 1-.469-1.64q0-.83.313-1.475.312-.645.918-1.084.615-.449 1.533-.674.918-.234 2.129-.234zm9.394 4.433q.518 0 .918-.195.4-.205.625-.566.234-.371.244-.869h2.647q-.01 1.113-.596 1.982a4.1 4.1 0 0 1-1.572 1.357q-.987.489-2.207.489-1.231 0-2.149-.41a4.2 4.2 0 0 1-1.514-1.133 5 5 0 0 1-.908-1.7 7 7 0 0 1-.302-2.089v-.284q0-1.123.302-2.089a4.9 4.9 0 0 1 .908-1.7 4.15 4.15 0 0 1 1.514-1.142q.909-.41 2.129-.41 1.299 0 2.275.498a3.7 3.7 0 0 1 1.543 1.425q.567.918.577 2.178h-2.647a2.2 2.2 0 0 0-.225-.957 1.6 1.6 0 0 0-.605-.683q-.39-.264-.967-.264-.615 0-1.006.264-.39.253-.605.703a3.5 3.5 0 0 0-.303 1.006 8.4 8.4 0 0 0-.078 1.171v.284q0 .615.078 1.181t.293 1.006q.225.44.615.694.391.253 1.016.253m11.328 2.198q-1.231 0-2.207-.391a4.85 4.85 0 0 1-1.66-1.103 4.9 4.9 0 0 1-1.036-1.631 5.5 5.5 0 0 1-.361-1.993v-.39q0-1.201.342-2.197a5.2 5.2 0 0 1 .976-1.729q.645-.733 1.563-1.123.918-.4 2.07-.4 1.124 0 1.992.371.87.371 1.455 1.054.597.684.899 1.641.303.948.303 2.109v1.172h-8.399v-1.875h5.635v-.215q0-.585-.215-1.044a1.66 1.66 0 0 0-.625-.743q-.42-.273-1.074-.273-.556 0-.957.244a1.9 1.9 0 0 0-.654.684 3.7 3.7 0 0 0-.371 1.035q-.118.585-.118 1.289v.39q0 .636.176 1.172.185.537.518.928.342.39.82.606.488.214 1.104.214a3.4 3.4 0 0 0 1.416-.293 3.06 3.06 0 0 0 1.142-.908l1.367 1.485a4.2 4.2 0 0 1-.908.918 4.9 4.9 0 0 1-1.367.722q-.801.274-1.826.274m17.431-3.116a.9.9 0 0 0-.176-.546q-.175-.245-.654-.45-.469-.214-1.358-.39a10.5 10.5 0 0 1-1.494-.44 5.2 5.2 0 0 1-1.191-.654 2.85 2.85 0 0 1-.782-.898 2.5 2.5 0 0 1-.283-1.202q0-.663.283-1.25.294-.585.83-1.035a4 4 0 0 1 1.328-.713 5.6 5.6 0 0 1 1.778-.263q1.377 0 2.363.439.996.44 1.524 1.211.537.762.537 1.738h-2.813q0-.41-.176-.732a1.16 1.16 0 0 0-.527-.518q-.351-.195-.918-.195a1.8 1.8 0 0 0-.81.166 1.24 1.24 0 0 0-.528.43 1.03 1.03 0 0 0-.176.586 1 1 0 0 0 .098.439q.108.186.342.342t.605.293q.381.127.938.234a11 11 0 0 1 2.041.615q.898.372 1.426 1.016.527.635.527 1.67 0 .703-.313 1.289a3.1 3.1 0 0 1-.898 1.025 4.5 4.5 0 0 1-1.406.674 6.6 6.6 0 0 1-1.826.235q-1.475 0-2.5-.528-1.016-.527-1.543-1.338-.518-.82-.518-1.679h2.666q.02.576.293.927.283.352.713.508.44.157.947.157.548 0 .908-.147.362-.156.547-.41a1 1 0 0 0 .196-.606m10.136-7.646v1.992h-6.152v-1.992zm-4.629-2.607h2.813v9.99q0 .459.117.703a.7.7 0 0 0 .371.342q.245.088.615.088.264 0 .469-.02.214-.029.361-.059l.01 2.071q-.361.117-.781.185-.42.069-.928.069-.928 0-1.621-.303a2.23 2.23 0 0 1-1.055-.996q-.37-.684-.371-1.797zm9.443 4.912v8.261h-2.813v-10.566h2.647zm3.184-2.373-.049 2.607a7 7 0 0 0-.498-.049 5 5 0 0 0-.518-.029q-.595 0-1.035.156a1.85 1.85 0 0 0-.723.44 1.9 1.9 0 0 0-.429.712 3.5 3.5 0 0 0-.157.958l-.566-.176q0-1.026.205-1.885a5.2 5.2 0 0 1 .596-1.514q.4-.643.976-.996a2.5 2.5 0 0 1 1.319-.351q.234 0 .478.039.244.029.401.088m6.396 10.83q-1.231 0-2.207-.391a4.9 4.9 0 0 1-1.661-1.103 4.9 4.9 0 0 1-1.035-1.631 5.5 5.5 0 0 1-.361-1.993v-.39q0-1.201.342-2.197a5.2 5.2 0 0 1 .976-1.729q.645-.733 1.563-1.123.918-.4 2.07-.4 1.124 0 1.992.371.87.371 1.455 1.054.596.684.899 1.641.303.948.303 2.109v1.172h-8.399v-1.875h5.635v-.215q0-.585-.215-1.044a1.66 1.66 0 0 0-.625-.743q-.42-.273-1.074-.273-.557 0-.957.244a1.9 1.9 0 0 0-.654.684 3.7 3.7 0 0 0-.372 1.035q-.117.585-.117 1.289v.39q0 .636.176 1.172.186.537.518.928.341.39.82.606.488.214 1.103.214.762 0 1.416-.293a3.05 3.05 0 0 0 1.143-.908l1.367 1.485a4.2 4.2 0 0 1-.908.918 4.9 4.9 0 0 1-1.367.722q-.801.274-1.826.274m12.04-2.578v-4.707q0-.508-.166-.87a1.24 1.24 0 0 0-.517-.576q-.342-.205-.889-.205-.469 0-.811.166a1.2 1.2 0 0 0-.527.459 1.27 1.27 0 0 0-.185.693h-2.813q0-.673.313-1.279.312-.605.908-1.064a4.5 4.5 0 0 1 1.416-.733 6.1 6.1 0 0 1 1.855-.263q1.231 0 2.188.41a3.34 3.34 0 0 1 1.504 1.23q.556.82.556 2.051v4.522q0 .869.108 1.425.107.548.312.957v.166h-2.842a4 4 0 0 1-.312-1.074 9 9 0 0 1-.098-1.308m.371-4.053.02 1.592h-1.572q-.557 0-.967.127a1.8 1.8 0 0 0-.674.361q-.264.225-.391.527a1.8 1.8 0 0 0-.117.664q0 .361.166.655.166.282.479.449.312.156.732.156.635 0 1.104-.254.468-.253.722-.625.264-.371.274-.703l.742 1.191a5 5 0 0 1-.43.831q-.264.429-.674.81a3.5 3.5 0 0 1-.986.615q-.576.235-1.367.235a4.1 4.1 0 0 1-1.826-.401 3.3 3.3 0 0 1-1.289-1.123 2.94 2.94 0 0 1-.469-1.64q0-.83.312-1.475.313-.645.918-1.084.616-.449 1.534-.674.918-.234 2.129-.234zm7.842-1.944v8.379h-2.822v-10.566h2.646zm-.391 2.725h-.781q0-1.104.264-2.031a5 5 0 0 1 .791-1.621 3.6 3.6 0 0 1 1.298-1.074q.772-.381 1.788-.381.702 0 1.289.214.586.205 1.005.655.43.44.665 1.152.234.703.234 1.69v7.05h-2.813v-6.738q0-.723-.195-1.113a1.1 1.1 0 0 0-.557-.547 2.1 2.1 0 0 0-.849-.156q-.548 0-.957.224-.4.225-.664.625a2.8 2.8 0 0 0-.391.918 4.8 4.8 0 0 0-.127 1.133m6.289-.322-1.006.127q0-1.035.254-1.924a4.9 4.9 0 0 1 .772-1.563 3.55 3.55 0 0 1 1.279-1.044q.762-.381 1.758-.381.762 0 1.387.224.624.215 1.064.694.45.468.684 1.23.244.762.244 1.865v6.748h-2.822v-6.748q0-.732-.196-1.113a1.03 1.03 0 0 0-.547-.537 2.1 2.1 0 0 0-.84-.156q-.507 0-.888.205a1.76 1.76 0 0 0-.635.547 2.5 2.5 0 0 0-.381.82 3.8 3.8 0 0 0-.127 1.006m14.521.41v-.215q0-2.06.43-3.74.44-1.68 1.152-2.949.723-1.28 1.572-2.119t1.69-1.211l.537 1.484q-.557.41-1.094 1.133-.537.712-.977 1.758-.429 1.034-.693 2.441-.264 1.396-.264 3.184v.253q0 1.788.264 3.194.264 1.397.693 2.441.44 1.055.977 1.778.537.722 1.094 1.142l-.537 1.445q-.84-.371-1.69-1.21-.849-.83-1.572-2.11-.712-1.269-1.152-2.949-.43-1.689-.43-3.75m10.234-9.434v15h-2.822v-15zm2.275 9.825v-.205q0-1.162.332-2.139a4.9 4.9 0 0 1 .967-1.709 4.3 4.3 0 0 1 1.562-1.123q.928-.41 2.129-.41t2.139.41a4.3 4.3 0 0 1 1.572 1.123 4.9 4.9 0 0 1 .977 1.709q.332.977.332 2.139v.205q0 1.152-.332 2.138a5 5 0 0 1-.977 1.709 4.3 4.3 0 0 1-1.562 1.123q-.929.4-2.129.401-1.202 0-2.139-.401a4.4 4.4 0 0 1-1.572-1.123 5.1 5.1 0 0 1-.967-1.709 6.7 6.7 0 0 1-.332-2.138m2.812-.205v.205q0 .664.118 1.24.116.576.371 1.015.263.43.683.674t1.026.244q.586 0 1.006-.244a1.85 1.85 0 0 0 .673-.674q.255-.44.371-1.015.127-.576.127-1.24v-.205a5.5 5.5 0 0 0-.127-1.211 3.2 3.2 0 0 0-.38-1.016 1.9 1.9 0 0 0-.674-.703q-.42-.254-1.016-.254t-1.015.254a2 2 0 0 0-.674.703q-.255.439-.371 1.016a6 6 0 0 0-.118 1.211m16.016-5.186h2.548v10.215q0 1.444-.644 2.451a4 4 0 0 1-1.777 1.533q-1.143.528-2.657.528-.663 0-1.406-.176a5.6 5.6 0 0 1-1.406-.547 3.7 3.7 0 0 1-1.113-.938l1.24-1.66q.488.567 1.133.879.644.322 1.425.322.762 0 1.289-.283.528-.273.811-.81.283-.528.283-1.28v-7.793zm-7.11 5.41v-.205q0-1.211.293-2.197.303-.996.85-1.709.556-.712 1.348-1.104.79-.39 1.787-.39 1.054 0 1.767.39.713.391 1.172 1.114a5.8 5.8 0 0 1 .713 1.689q.264.967.41 2.119v.449q-.147 1.104-.439 2.051a6.3 6.3 0 0 1-.772 1.66 3.4 3.4 0 0 1-1.191 1.094q-.704.39-1.68.391-.976 0-1.767-.401a3.94 3.94 0 0 1-1.338-1.123 5.4 5.4 0 0 1-.86-1.699 7.4 7.4 0 0 1-.293-2.129m2.813-.205v.205q0 .654.127 1.221.127.566.39 1.006.274.43.674.674.41.234.967.234.771 0 1.26-.322a2.03 2.03 0 0 0 .732-.909q.244-.575.283-1.328v-1.279a4.3 4.3 0 0 0-.166-1.104 2.6 2.6 0 0 0-.41-.849 1.76 1.76 0 0 0-.683-.547q-.42-.195-.996-.195a1.8 1.8 0 0 0-.967.254 2.1 2.1 0 0 0-.674.673 3.4 3.4 0 0 0-.401 1.016 5.4 5.4 0 0 0-.136 1.25m12.402-5.205v10.566h-2.823v-10.566zm-2.998-2.754q0-.615.429-1.016.43-.4 1.153-.4.713 0 1.142.4.44.4.44 1.016 0 .615-.44 1.016-.43.4-1.142.4-.723 0-1.153-.4a1.33 1.33 0 0 1-.429-1.016m10.087 11.318q.518 0 .918-.195.4-.205.625-.566.234-.371.244-.869h2.647q-.01 1.113-.596 1.982a4.1 4.1 0 0 1-1.572 1.357q-.986.489-2.207.489-1.231 0-2.149-.41a4.2 4.2 0 0 1-1.513-1.133 5 5 0 0 1-.909-1.7 7 7 0 0 1-.302-2.089v-.284q0-1.123.302-2.089a4.9 4.9 0 0 1 .909-1.7 4.14 4.14 0 0 1 1.513-1.142q.909-.41 2.129-.41 1.3 0 2.276.498a3.7 3.7 0 0 1 1.543 1.425q.565.918.576 2.178h-2.647a2.2 2.2 0 0 0-.224-.957 1.6 1.6 0 0 0-.606-.683q-.39-.264-.967-.264-.615 0-1.005.264a1.67 1.67 0 0 0-.606.703 3.5 3.5 0 0 0-.303 1.006 8.4 8.4 0 0 0-.078 1.171v.284q0 .615.078 1.181t.293 1.006q.225.44.616.694.39.253 1.015.253m12.168-.38v-4.707q0-.508-.166-.87a1.24 1.24 0 0 0-.518-.576q-.342-.205-.889-.205-.468 0-.81.166a1.17 1.17 0 0 0-.527.459 1.27 1.27 0 0 0-.186.693h-2.812q0-.673.312-1.279t.908-1.064a4.5 4.5 0 0 1 1.416-.733 6.1 6.1 0 0 1 1.856-.263q1.23 0 2.187.41t1.504 1.23q.557.82.557 2.051v4.522q0 .869.107 1.425.108.548.313.957v.166h-2.842a4 4 0 0 1-.313-1.074 9 9 0 0 1-.097-1.308m.371-4.053.019 1.592h-1.572q-.556 0-.967.127a1.8 1.8 0 0 0-.674.361q-.263.225-.39.527a1.8 1.8 0 0 0-.117.664q0 .361.166.655.166.282.478.449.313.156.733.156.635 0 1.103-.254.47-.253.723-.625.264-.371.273-.703l.742 1.191a5 5 0 0 1-.429.831 4 4 0 0 1-.674.81 3.5 3.5 0 0 1-.986.615q-.577.235-1.368.235-1.005 0-1.826-.401a3.3 3.3 0 0 1-1.289-1.123 2.95 2.95 0 0 1-.469-1.64q0-.83.313-1.475.312-.645.918-1.084.615-.449 1.533-.674.918-.234 2.129-.234zm7.998-8.565v15h-2.823v-15zm2.86 13.643q0-.625.43-1.045.44-.42 1.162-.42.723 0 1.153.42.44.42.439 1.045 0 .625-.439 1.045-.43.42-1.153.42t-1.162-.42a1.4 1.4 0 0 1-.43-1.045m6.201 0a1.4 1.4 0 0 1 .43-1.045q.44-.42 1.162-.42.723 0 1.152.42.44.42.44 1.045t-.44 1.045q-.429.42-1.152.42t-1.162-.42a1.4 1.4 0 0 1-.43-1.045m6.201 0a1.4 1.4 0 0 1 .43-1.045q.44-.42 1.162-.42.723 0 1.152.42.44.42.44 1.045t-.44 1.045q-.429.42-1.152.42t-1.162-.42a1.4 1.4 0 0 1-.43-1.045m14.198-6.953v8.31h-2.812v-10.566h2.637zm-.41 2.656h-.761q0-1.172.302-2.109.303-.948.85-1.612a3.64 3.64 0 0 1 1.299-1.025 3.9 3.9 0 0 1 1.699-.361q.742 0 1.357.214.616.216 1.055.684.45.47.684 1.24.243.772.244 1.885v6.738h-2.832v-6.748q0-.702-.196-1.093a1.1 1.1 0 0 0-.576-.547q-.37-.166-.918-.166a2.1 2.1 0 0 0-.986.224q-.41.225-.684.625a3 3 0 0 0-.4.918 4.5 4.5 0 0 0-.137 1.133m8.818.479v-.205q0-1.162.332-2.139a5 5 0 0 1 .967-1.709 4.3 4.3 0 0 1 1.563-1.123q.928-.41 2.128-.41t2.139.41a4.3 4.3 0 0 1 1.572 1.123q.645.722.977 1.709.332.977.332 2.139v.205q0 1.152-.332 2.138a5 5 0 0 1-.977 1.709 4.3 4.3 0 0 1-1.562 1.123q-.928.4-2.129.401-1.202 0-2.139-.401a4.4 4.4 0 0 1-1.572-1.123 5.1 5.1 0 0 1-.967-1.709 6.7 6.7 0 0 1-.332-2.138m2.813-.205v.205q0 .664.117 1.24t.371 1.015q.264.43.684.674t1.025.244q.586 0 1.006-.244.42-.243.674-.674.254-.44.371-1.015a5.8 5.8 0 0 0 .127-1.24v-.205q0-.645-.127-1.211a3.2 3.2 0 0 0-.381-1.016 1.9 1.9 0 0 0-.674-.703q-.42-.254-1.016-.254-.595 0-1.015.254a2 2 0 0 0-.674.703 3.4 3.4 0 0 0-.371 1.016 6 6 0 0 0-.117 1.211m14.501-5.186v1.992h-6.152v-1.992zm-4.629-2.607h2.813v9.99q0 .459.117.703a.7.7 0 0 0 .371.342q.245.088.615.088.264 0 .469-.02.215-.029.361-.059l.01 2.071q-.361.117-.781.185-.42.069-.928.069-.928 0-1.621-.303a2.23 2.23 0 0 1-1.055-.996q-.37-.684-.371-1.797zm17.714 10.791v-4.707q0-.508-.166-.87a1.24 1.24 0 0 0-.517-.576q-.342-.205-.889-.205-.468 0-.81.166a1.17 1.17 0 0 0-.528.459 1.27 1.27 0 0 0-.185.693h-2.813q0-.673.313-1.279.312-.605.908-1.064a4.5 4.5 0 0 1 1.416-.733 6.1 6.1 0 0 1 1.855-.263q1.231 0 2.188.41a3.34 3.34 0 0 1 1.504 1.23q.557.82.557 2.051v4.522q0 .869.107 1.425.108.548.312.957v.166h-2.841a4 4 0 0 1-.313-1.074 9 9 0 0 1-.098-1.308m.372-4.053.019 1.592h-1.572q-.557 0-.967.127a1.8 1.8 0 0 0-.674.361q-.264.225-.39.527a1.8 1.8 0 0 0-.118.664q0 .361.166.655.167.282.479.449.312.156.732.156.635 0 1.104-.254a2 2 0 0 0 .723-.625q.262-.371.273-.703l.742 1.191a5 5 0 0 1-.43.831q-.263.429-.673.81a3.5 3.5 0 0 1-.987.615q-.576.235-1.367.235-1.005 0-1.826-.401a3.3 3.3 0 0 1-1.289-1.123 2.94 2.94 0 0 1-.469-1.64q0-.83.313-1.475.312-.645.918-1.084.615-.449 1.533-.674.918-.234 2.129-.234zm13.221-2.1v12.598h-2.812v-14.629h2.607zm6.69 3.135v.205q0 1.152-.274 2.139a5.3 5.3 0 0 1-.781 1.718q-.518.723-1.289 1.133-.762.4-1.758.401-.966 0-1.679-.391a3.5 3.5 0 0 1-1.202-1.094 6.3 6.3 0 0 1-.771-1.65 13 13 0 0 1-.449-2.012v-.537q.156-1.152.449-2.109a6 6 0 0 1 .771-1.67 3.5 3.5 0 0 1 1.192-1.104q.713-.39 1.67-.39 1.006 0 1.767.381.772.38 1.289 1.093.528.714.791 1.699.274.987.274 2.188m-2.822.205v-.205q0-.674-.118-1.24a3.2 3.2 0 0 0-.351-1.006 1.7 1.7 0 0 0-.625-.664q-.38-.244-.928-.244-.576 0-.986.185a1.65 1.65 0 0 0-.654.537q-.255.352-.381.84a5.4 5.4 0 0 0-.157 1.104v1.357q.05.723.274 1.299.225.567.693.898.47.333 1.231.332.556 0 .937-.244.381-.254.615-.693a3.2 3.2 0 0 0 .342-1.016q.108-.576.108-1.24m7.714-9.805v15h-2.812v-15zm-.4 9.346h-.772a7.2 7.2 0 0 1 .293-2.031 5 5 0 0 1 .811-1.621 3.7 3.7 0 0 1 1.259-1.074 3.54 3.54 0 0 1 1.641-.381q.781 0 1.416.224.645.215 1.104.703.468.478.722 1.26.255.781.254 1.895v6.679h-2.832v-6.699q0-.703-.205-1.103a1.13 1.13 0 0 0-.576-.577q-.37-.175-.918-.175-.606 0-1.035.224-.42.225-.674.625a2.8 2.8 0 0 0-.371.918 5.2 5.2 0 0 0-.117 1.133m12.402 4.463 2.802-9.375h3.018l-4.248 12.158a7 7 0 0 1-.371.86q-.225.459-.615.869-.382.42-.967.683-.576.264-1.416.264-.4 0-.655-.049a11 11 0 0 1-.605-.137v-2.06h.225q.117.01.224.01.557 0 .908-.127.352-.127.567-.391.215-.254.342-.664zm-1.172-9.375 2.295 7.656.4 2.979-1.914.205-3.799-10.84zm14.228 7.646a.9.9 0 0 0-.176-.546q-.175-.245-.654-.45-.469-.214-1.358-.39a10.6 10.6 0 0 1-1.494-.44 5.2 5.2 0 0 1-1.191-.654 2.8 2.8 0 0 1-.781-.898 2.5 2.5 0 0 1-.284-1.202q0-.663.284-1.25.293-.585.83-1.035a3.9 3.9 0 0 1 1.328-.713 5.6 5.6 0 0 1 1.777-.263q1.377 0 2.363.439.996.44 1.524 1.211.537.762.537 1.738h-2.813q0-.41-.175-.732a1.17 1.17 0 0 0-.528-.518q-.351-.195-.918-.195-.468 0-.81.166a1.24 1.24 0 0 0-.528.43 1.03 1.03 0 0 0-.175.586 1 1 0 0 0 .097.439q.108.186.342.342t.606.293q.38.127.937.234a11 11 0 0 1 2.041.615q.898.372 1.426 1.016.527.635.527 1.67a2.7 2.7 0 0 1-.312 1.289 3.1 3.1 0 0 1-.899 1.025q-.585.43-1.406.674a6.5 6.5 0 0 1-1.826.235q-1.474 0-2.5-.528-1.015-.527-1.543-1.338-.518-.82-.518-1.679h2.666q.02.576.293.927.284.352.713.508.44.157.948.157.546 0 .908-.147.361-.156.547-.41a1 1 0 0 0 .195-.606m7.929-7.646v10.566h-2.822v-10.566zm-2.998-2.754q0-.615.43-1.016.429-.4 1.152-.4.712 0 1.143.4.44.4.439 1.016 0 .615-.439 1.016-.43.4-1.143.4-.723 0-1.152-.4a1.33 1.33 0 0 1-.43-1.016m10.088 11.318q.518 0 .918-.195.4-.205.625-.566.234-.371.244-.869h2.646a3.5 3.5 0 0 1-.595 1.982 4.1 4.1 0 0 1-1.573 1.357q-.986.489-2.207.489-1.23 0-2.148-.41a4.2 4.2 0 0 1-1.514-1.133 5 5 0 0 1-.908-1.7 7 7 0 0 1-.303-2.089v-.284q0-1.123.303-2.089a4.85 4.85 0 0 1 .908-1.7 4.14 4.14 0 0 1 1.514-1.142q.908-.41 2.129-.41 1.299 0 2.275.498a3.7 3.7 0 0 1 1.543 1.425q.567.918.576 2.178h-2.646a2.2 2.2 0 0 0-.225-.957 1.6 1.6 0 0 0-.605-.683q-.391-.264-.967-.264-.615 0-1.006.264-.39.253-.605.703a3.5 3.5 0 0 0-.303 1.006 8.4 8.4 0 0 0-.078 1.171v.284q0 .615.078 1.181t.293 1.006q.225.44.615.694t1.016.253m12.167-.38v-4.707q0-.508-.166-.87a1.24 1.24 0 0 0-.517-.576q-.342-.205-.889-.205-.47 0-.811.166a1.2 1.2 0 0 0-.527.459 1.27 1.27 0 0 0-.185.693h-2.813q0-.673.313-1.279.312-.605.908-1.064a4.5 4.5 0 0 1 1.416-.733 6.1 6.1 0 0 1 1.855-.263q1.231 0 2.188.41a3.34 3.34 0 0 1 1.504 1.23q.556.82.556 2.051v4.522q0 .869.108 1.425.106.548.312.957v.166h-2.842a4 4 0 0 1-.312-1.074 9 9 0 0 1-.098-1.308m.371-4.053.02 1.592h-1.572q-.558 0-.967.127a1.8 1.8 0 0 0-.674.361q-.264.225-.391.527a1.8 1.8 0 0 0-.117.664q0 .361.166.655.166.282.479.449.312.156.732.156.635 0 1.104-.254.468-.253.722-.625.264-.371.274-.703l.742 1.191a5 5 0 0 1-.43.831q-.264.429-.674.81a3.5 3.5 0 0 1-.986.615q-.576.235-1.367.235a4.1 4.1 0 0 1-1.826-.401 3.3 3.3 0 0 1-1.289-1.123 2.94 2.94 0 0 1-.469-1.64q0-.83.312-1.475.313-.645.918-1.084.615-.449 1.534-.674.918-.234 2.128-.234zm7.998-8.565v15h-2.822v-15zm13.28 4.434v1.992h-6.152v-1.992zm-4.628-2.607h2.812v9.99q0 .459.117.703a.7.7 0 0 0 .371.342q.244.088.616.088.263 0 .468-.02.216-.029.362-.059l.009 2.071q-.36.117-.781.185-.42.069-.928.069-.927 0-1.621-.303a2.23 2.23 0 0 1-1.054-.996q-.371-.684-.371-1.797zm9.374-1.827v15h-2.812v-15zm-.4 9.346h-.772a7.2 7.2 0 0 1 .293-2.031 5 5 0 0 1 .811-1.621 3.7 3.7 0 0 1 1.26-1.074 3.5 3.5 0 0 1 1.64-.381q.782 0 1.416.224.645.215 1.104.703.468.478.722 1.26.255.781.254 1.895v6.679h-2.832v-6.699q0-.703-.205-1.103a1.13 1.13 0 0 0-.576-.577q-.37-.175-.918-.175-.606 0-1.035.224-.42.225-.674.625a2.8 2.8 0 0 0-.371.918 5.2 5.2 0 0 0-.117 1.133m12.236-4.912v10.566h-2.823v-10.566zm-2.998-2.754q0-.615.429-1.016.43-.4 1.153-.4.713 0 1.142.4.44.4.44 1.016 0 .615-.44 1.016-.43.4-1.142.4-.723 0-1.153-.4a1.33 1.33 0 0 1-.429-1.016m8.476 5.01v8.31h-2.813v-10.566h2.637zm-.41 2.656h-.762q0-1.172.303-2.109.303-.948.849-1.612a3.65 3.65 0 0 1 1.299-1.025 3.9 3.9 0 0 1 1.699-.361q.743 0 1.358.214.615.216 1.054.684.45.47.684 1.24.244.772.244 1.885v6.738h-2.832v-6.748q0-.702-.195-1.093a1.1 1.1 0 0 0-.576-.547q-.372-.166-.918-.166-.567 0-.987.224-.41.225-.683.625a3 3 0 0 0-.401.918 4.5 4.5 0 0 0-.136 1.133m15.956-4.912h2.549v10.215q0 1.444-.644 2.451a4 4 0 0 1-1.778 1.533q-1.142.528-2.656.528-.664 0-1.406-.176a5.6 5.6 0 0 1-1.406-.547 3.7 3.7 0 0 1-1.114-.938l1.24-1.66q.49.567 1.133.879.645.322 1.426.322.762 0 1.289-.283.528-.273.811-.81.283-.528.283-1.28v-7.793zm-7.109 5.41v-.205q0-1.211.293-2.197.303-.996.85-1.709.557-.712 1.347-1.104.792-.39 1.787-.39 1.055 0 1.768.39.713.391 1.172 1.114.458.713.713 1.689.263.967.41 2.119v.449q-.146 1.104-.44 2.051a6.3 6.3 0 0 1-.771 1.66 3.4 3.4 0 0 1-1.192 1.094q-.702.39-1.679.391a3.86 3.86 0 0 1-1.768-.401 3.94 3.94 0 0 1-1.338-1.123 5.4 5.4 0 0 1-.859-1.699 7.4 7.4 0 0 1-.293-2.129m2.812-.205v.205q0 .654.127 1.221.127.566.391 1.006.273.43.674.674.41.234.967.234.771 0 1.259-.322.489-.332.733-.909.244-.575.283-1.328v-1.279a4.3 4.3 0 0 0-.166-1.104 2.6 2.6 0 0 0-.41-.849 1.8 1.8 0 0 0-.684-.547q-.42-.195-.996-.195-.556 0-.967.254a2.1 2.1 0 0 0-.673.673q-.264.43-.401 1.016a5.4 5.4 0 0 0-.137 1.25m14.268-.42v.215q0 1.992-.45 3.672-.448 1.67-1.191 2.959-.732 1.299-1.611 2.158-.87.86-1.739 1.23l-.546-1.445q.556-.41 1.083-1.133.538-.722.977-1.777.44-1.045.693-2.451.264-1.406.264-3.194v-.253q0-1.787-.264-3.194-.263-1.405-.712-2.451-.44-1.054-.977-1.768-.527-.722-1.064-1.132l.546-1.455q.87.37 1.739 1.24.879.86 1.611 2.148.743 1.29 1.191 2.969.45 1.67.45 3.662"/><rect width="169.007" height="104.796" x="291.879" y="313.965" fill="#EABEF3" stroke="#212121" stroke-width="4" rx="14"/><g clip-path="url(#a)"><path fill="url(#b)" fill-rule="evenodd" d="M323.42 344.88c-2.664.467-4.741 2.536-5.369 5.35-.094.419-.107.817-.107 3.246 0 2.481.012 2.818.112 3.26.137.602.366 1.277.562 1.652l.146.28-.153.369c-.434 1.048-.243 2.143.507 2.91.169.172.428.375.578.451l.271.138-.017 7.779-.017 7.779-.162.567c-.335 1.177-.977 2.035-1.832 2.451-.568.276-1.057.392-1.899.449-.384.027-.808.08-.943.119-.424.123-.806.452-1.04.896-.187.353-.21.448-.209.842.002.725.372 1.33 1.008 1.65.706.355 2.842.122 4.246-.463 2.213-.923 3.67-2.79 4.306-5.52.135-.579.136-.629.169-6.585.025-4.407.052-6.032.104-6.118.09-.149.373-.403.544-.488.169-.084.592-.084.761 0 .171.085.454.339.544.488.051.085.08 1.406.104 4.836l.034 4.72.161.706c.452 1.987 1.341 3.476 2.707 4.535.596.461 1.714 1.014 2.474 1.224 1.257.346 2.766.42 3.307.162.379-.18.704-.504.89-.887.228-.47.225-1.122-.009-1.583a2.2 2.2 0 0 0-.414-.545c-.397-.347-.689-.441-1.549-.498-.898-.059-1.329-.157-1.923-.437-.895-.423-1.544-1.291-1.892-2.531l-.14-.495-.018-6.505-.019-6.505.34-.185c.668-.365 1.129-.999 1.293-1.779.128-.606-.038-1.436-.385-1.93-.147-.209-.149-.224-.058-.426a9 9 0 0 0 .536-1.756c.079-.441.091-.98.073-3.278l-.022-2.75-.169-.606c-.312-1.121-.726-1.915-1.453-2.788-1.424-1.711-3.796-2.584-5.978-2.201m14.799 11.426c-.383.114-.897.575-1.082.97l-.143.307v14.393l.134.281c.321.673.822 1.026 1.525 1.075.741.051 1.383-.297 1.734-.941l.163-.299v-14.625l-.179-.312c-.434-.758-1.304-1.101-2.152-.849m-28.473 2.259c-.602.192-1.019.57-1.229 1.111l-.13.335.016 7.031.016 7.032.168.329c.712 1.403 2.726 1.311 3.292-.149l.129-.335-.016-7.061-.016-7.06-.136-.265c-.39-.756-1.358-1.204-2.094-.968m11.446.102c.321.086.789.522.924.859.171.428.142.959-.074 1.341-.159.284-.525.65-.649.65-.027 0-.007-.059.044-.13.052-.071.094-.244.094-.384 0-.213-.034-.289-.205-.454-.23-.222-.515-.263-.811-.115-.343.171-.422.712-.15 1.024l.16.184-.235-.095c-.56-.225-.928-.793-.927-1.429.001-.643.3-1.114.872-1.376.33-.151.598-.172.957-.075m7.715-.001c.256.069.723.452.857.703.164.307.221.721.147 1.067-.082.383-.377.83-.648.981l-.195.109.089-.165c.159-.294.117-.587-.115-.812-.23-.222-.515-.263-.811-.115-.34.17-.422.712-.154 1.02.182.209.161.219-.146.067-.521-.256-.805-.696-.843-1.304-.043-.68.265-1.208.863-1.477.33-.149.6-.169.956-.074m15.157.863c-.43.167-.729.428-.957.834l-.206.367-.017 2.439c-.02 2.762-.011 2.838.415 3.359.466.57 1.275.788 2.018.543.412-.136.872-.59 1.041-1.028.126-.323.13-.421.13-2.712 0-2.675-.011-2.762-.419-3.261-.459-.561-1.342-.799-2.005-.541m-28.519 3.176c-.551.197-.924.554-1.132 1.081-.11.281-.116.487-.116 4.197 0 3.78.004 3.911.123 4.218.267.691.85 1.097 1.625 1.134.417.019.483.006.842-.175.27-.135.458-.282.611-.478.427-.545.416-.425.416-4.698 0-4.272.011-4.152-.415-4.697-.421-.538-1.325-.807-1.954-.582m16.759.469c-.499.172-.86.514-1.11 1.052-.1.216-.108.483-.108 3.525v3.293l.157.323c.297.611.681.907 1.362 1.048.592.122 1.37-.19 1.732-.695.375-.524.366-.429.366-3.939 0-3.005-.007-3.225-.115-3.525-.153-.425-.667-.931-1.086-1.068-.355-.117-.882-.123-1.198-.014m-28.587 3.192a2 2 0 0 0-.867.648c-.359.504-.375.653-.356 3.281l.018 2.38.157.321c.189.384.514.707.892.887.218.104.38.132.759.132.422 0 .523-.021.806-.173.404-.216.694-.54.854-.952.118-.306.123-.42.106-2.831l-.018-2.512-.163-.298c-.202-.372-.63-.742-.996-.863-.314-.103-.92-.113-1.192-.02" clip-rule="evenodd"/></g><path fill="#572961" d="M361.115 346.371v14.219h-2.92v-14.219zm4.375 0v2.295h-11.601v-2.295zm5.84 14.414q-1.231 0-2.207-.39a4.85 4.85 0 0 1-1.661-1.104 4.9 4.9 0 0 1-1.035-1.631 5.5 5.5 0 0 1-.361-1.992v-.39q0-1.202.342-2.198t.976-1.728q.645-.733 1.563-1.123.918-.4 2.07-.401 1.123 0 1.992.372.87.37 1.455 1.054.596.684.899 1.641.303.947.303 2.109v1.172h-8.399v-1.875h5.635v-.215q0-.585-.215-1.045a1.66 1.66 0 0 0-.625-.742q-.42-.273-1.074-.273-.556 0-.957.244t-.654.683a3.7 3.7 0 0 0-.372 1.036q-.117.585-.117 1.289v.39q0 .635.176 1.172.185.537.518.928.342.39.82.605.488.215 1.103.215.762 0 1.416-.293a3.06 3.06 0 0 0 1.143-.908l1.367 1.484a4.2 4.2 0 0 1-.908.918 4.9 4.9 0 0 1-1.367.723q-.801.273-1.826.273m9.306-15.195v15h-2.822v-15zm7.587 15.195q-1.23 0-2.207-.39a4.85 4.85 0 0 1-1.66-1.104 4.9 4.9 0 0 1-1.035-1.631 5.5 5.5 0 0 1-.361-1.992v-.39q0-1.202.342-2.198a5.2 5.2 0 0 1 .976-1.728q.645-.733 1.563-1.123.918-.4 2.07-.401 1.123 0 1.992.372.87.37 1.455 1.054a4.6 4.6 0 0 1 .899 1.641q.302.947.302 2.109v1.172h-8.398v-1.875h5.635v-.215q0-.585-.215-1.045a1.66 1.66 0 0 0-.625-.742q-.42-.273-1.074-.273-.556 0-.957.244t-.655.683a3.8 3.8 0 0 0-.371 1.036q-.117.585-.117 1.289v.39q0 .635.176 1.172.186.537.517.928.342.39.821.605.488.215 1.103.215.762 0 1.416-.293a3.06 3.06 0 0 0 1.143-.908l1.367 1.484a4.2 4.2 0 0 1-.908.918 4.9 4.9 0 0 1-1.367.723q-.801.273-1.827.273m9.15-8.574v8.379h-2.822v-10.566h2.647zm-.39 2.725h-.781q0-1.104.263-2.031a5 5 0 0 1 .791-1.621 3.6 3.6 0 0 1 1.299-1.075q.771-.381 1.787-.381.704 0 1.289.215.586.205 1.006.655.43.44.664 1.152.235.703.235 1.689v7.051h-2.813v-6.738q0-.723-.195-1.113a1.1 1.1 0 0 0-.557-.547 2.1 2.1 0 0 0-.85-.157q-.546 0-.957.225-.4.225-.664.625-.263.39-.39.918a4.8 4.8 0 0 0-.127 1.133m6.289-.322-1.006.127q0-1.036.254-1.924a4.9 4.9 0 0 1 .771-1.563 3.6 3.6 0 0 1 1.28-1.045q.761-.381 1.758-.381.761 0 1.386.225.625.214 1.065.693.449.47.683 1.231.244.762.244 1.865v6.748h-2.822v-6.748q0-.732-.195-1.113a1.02 1.02 0 0 0-.547-.537 2.1 2.1 0 0 0-.84-.157q-.508 0-.889.206-.38.195-.634.546-.255.352-.381.821a3.8 3.8 0 0 0-.127 1.006m13.876 6.171q-1.23 0-2.207-.39a4.85 4.85 0 0 1-1.66-1.104 4.9 4.9 0 0 1-1.035-1.631 5.5 5.5 0 0 1-.361-1.992v-.39q0-1.202.342-2.198a5.2 5.2 0 0 1 .976-1.728q.645-.733 1.563-1.123.918-.4 2.07-.401 1.124 0 1.992.372.87.37 1.455 1.054a4.6 4.6 0 0 1 .899 1.641q.302.947.302 2.109v1.172h-8.398v-1.875h5.635v-.215q0-.585-.215-1.045a1.66 1.66 0 0 0-.625-.742q-.42-.273-1.074-.273-.557 0-.957.244t-.655.683a3.8 3.8 0 0 0-.371 1.036q-.117.585-.117 1.289v.39q0 .635.176 1.172.186.537.517.928.342.39.821.605.488.215 1.103.215.762 0 1.416-.293a3.06 3.06 0 0 0 1.143-.908l1.367 1.484a4.2 4.2 0 0 1-.908.918 4.9 4.9 0 0 1-1.367.723q-.801.273-1.827.273m11.514-10.761v1.992h-6.153v-1.992zm-4.629-2.608h2.812v9.991q0 .459.118.703a.7.7 0 0 0 .371.341q.243.088.615.088.264 0 .469-.019.214-.03.361-.059l.01 2.071q-.362.117-.782.185-.42.069-.927.068-.928 0-1.621-.302a2.24 2.24 0 0 1-1.055-.996q-.37-.684-.371-1.797zm9.443 4.912v8.262h-2.813v-10.566h2.647zm3.183-2.373-.048 2.608a7 7 0 0 0-.498-.049 5 5 0 0 0-.518-.029q-.596 0-1.035.156a1.85 1.85 0 0 0-.723.439 1.9 1.9 0 0 0-.43.713q-.137.42-.156.957l-.566-.175q0-1.026.205-1.885.205-.87.596-1.514.4-.645.976-.996a2.5 2.5 0 0 1 1.318-.352q.235 0 .479.039.244.03.4.088m5.039 9.444 2.803-9.375h3.017l-4.248 12.158a7 7 0 0 1-.371.859q-.225.46-.615.869-.38.42-.967.684-.576.264-1.416.264-.4 0-.654-.049a12 12 0 0 1-.606-.137v-2.06h.225q.117.009.225.009.556 0 .908-.127a1.26 1.26 0 0 0 .566-.39q.214-.254.342-.664zm-1.172-9.375 2.295 7.656.4 2.979-1.914.205-3.798-10.84zm-76.286 25.138v2.286h-7.422v-2.286zm-6.552-5.791v14.219h-2.93v-14.219zm8.642 0v14.219h-2.92v-14.219zm9.023 11.69v-8.037h2.813v10.566h-2.647zm.313-2.168.83-.02q0 1.055-.244 1.963a4.7 4.7 0 0 1-.733 1.563 3.4 3.4 0 0 1-1.23 1.025q-.743.361-1.748.361a4.6 4.6 0 0 1-1.426-.214 2.9 2.9 0 0 1-1.113-.694q-.459-.479-.723-1.22-.254-.753-.254-1.807v-6.826h2.812v6.845q0 .47.108.791.117.322.322.528.205.205.479.293.283.088.625.088.869 0 1.367-.352.507-.351.713-.957.215-.615.215-1.367m5.048-10.303h2.813v12.578l-.284 2.422h-2.529zm9.502 9.61v.205q0 1.18-.254 2.168a5 5 0 0 1-.762 1.709 3.65 3.65 0 0 1-1.289 1.113q-.76.39-1.797.39-.966 0-1.679-.39a3.4 3.4 0 0 1-1.182-1.104 6.3 6.3 0 0 1-.771-1.67 12.7 12.7 0 0 1-.44-2.089v-.45q.147-1.132.44-2.09a6.3 6.3 0 0 1 .771-1.669 3.4 3.4 0 0 1 1.182-1.104q.703-.39 1.66-.391 1.045 0 1.816.401.782.39 1.289 1.113.517.713.762 1.699.254.977.254 2.159m-2.812.205v-.205q0-.645-.098-1.211a3.2 3.2 0 0 0-.313-1.006 1.76 1.76 0 0 0-.615-.694q-.381-.254-.986-.254-.576 0-.977.196-.4.195-.664.547a2.5 2.5 0 0 0-.381.839q-.126.48-.156 1.055v1.279q.03.773.254 1.368.235.586.703.927.479.332 1.24.332.595 0 .987-.234.39-.235.605-.664.225-.43.313-1.006a9 9 0 0 0 .088-1.269"/><path fill="#fff" d="M235.886 59.511h36v10.495h-36zm-10.25 27.898h56.243v10.495h-56.243zm120.852 391.847h56.243v23.832h-56.243zM493.636 337.12h79.727v56.334h-79.727zm-12.26-277.609h36v10.495h-36zm-10.25 27.898h56.243v10.495h-56.243z"/><path fill="#6388B6" d="M229.946 87.973h3.765q1.281 0 2.164.39.891.39 1.352 1.156.469.759.469 1.868 0 .78-.321 1.43-.312.64-.906 1.093a4 4 0 0 1-1.406.664l-.422.164h-3.539l-.016-1.226h2.672q.813 0 1.352-.281.539-.29.812-.774t.274-1.07q0-.656-.258-1.149a1.72 1.72 0 0 0-.813-.757q-.547-.274-1.414-.274h-2.258v10.14h-1.507zm6.648 11.375-2.766-5.157 1.571-.007 2.804 5.07v.094zm6.82.156a4.2 4.2 0 0 1-1.602-.297 3.6 3.6 0 0 1-1.226-.851 3.8 3.8 0 0 1-.781-1.297 4.7 4.7 0 0 1-.274-1.641v-.328q0-1.032.305-1.836.305-.813.828-1.375a3.55 3.55 0 0 1 1.188-.852 3.4 3.4 0 0 1 1.375-.289q.906 0 1.562.313.665.312 1.086.875.422.555.625 1.312.203.75.203 1.64v.65h-6.312v-1.18h4.867v-.11a3.6 3.6 0 0 0-.235-1.094 1.96 1.96 0 0 0-.625-.875q-.43-.343-1.171-.343a1.97 1.97 0 0 0-1.618.82 3.1 3.1 0 0 0-.461.992q-.164.585-.164 1.352v.328q0 .602.164 1.133.172.523.493.922.327.398.789.625.468.225 1.062.226.766 0 1.297-.312a3.2 3.2 0 0 0 .93-.836l.875.695q-.274.414-.696.79-.421.374-1.039.608-.61.235-1.445.235m8.836-8.61v1.11h-4.571v-1.11zm-3.024-2.054h1.446v8.414q0 .429.132.648a.64.64 0 0 0 .344.29q.211.07.453.07.18 0 .375-.031a9 9 0 0 0 .305-.063l.008 1.18q-.173.054-.453.101a3.5 3.5 0 0 1-.664.055q-.532 0-.977-.211a1.57 1.57 0 0 1-.711-.703q-.258-.5-.258-1.344zm10.211 8.554v-6.5h1.453v8.454h-1.383zm.273-1.78.602-.016q0 .843-.18 1.562a3.4 3.4 0 0 1-.562 1.234 2.7 2.7 0 0 1-1.024.82q-.633.29-1.539.29-.617 0-1.133-.18a2.3 2.3 0 0 1-.875-.555 2.5 2.5 0 0 1-.57-.976q-.195-.602-.195-1.445v-5.454h1.445v5.47q0 .57.125.945.133.367.352.585.226.212.5.297.28.087.578.086.921 0 1.461-.351.539-.36.773-.961.243-.61.242-1.352m5.148-3.391v7.125h-1.445v-8.454h1.406zm2.641-1.375-.008 1.343a2 2 0 0 0-.344-.047 4 4 0 0 0-.359-.015q-.5 0-.883.156-.382.156-.648.438a2.1 2.1 0 0 0-.422.671 3.2 3.2 0 0 0-.195.844l-.407.235q0-.766.149-1.438a3.9 3.9 0 0 1 .476-1.187q.321-.524.813-.813.5-.297 1.187-.297.157 0 .36.04.203.03.281.07m3.101 1.851v6.649h-1.445v-8.454h1.367zm-.343 2.102-.602-.024a5 5 0 0 1 .258-1.601q.25-.742.703-1.29a3.1 3.1 0 0 1 1.078-.843 3.2 3.2 0 0 1 1.398-.305q.625 0 1.125.172.501.165.852.531.36.368.547.953.187.579.187 1.415v5.539h-1.453v-5.555q0-.664-.195-1.062a1.2 1.2 0 0 0-.57-.587q-.376-.187-.922-.187-.54 0-.985.227-.437.225-.757.625-.313.398-.493.914a3.4 3.4 0 0 0-.171 1.078m48.44 388.093v11.438h-1.445v-9.633l-2.914 1.062v-1.304l4.132-1.563zm11.711 4.844v1.734q0 1.399-.25 2.36t-.719 1.547a2.74 2.74 0 0 1-1.133.851 4 4 0 0 1-1.484.258q-.656 0-1.211-.164a2.9 2.9 0 0 1-1-.523 3.2 3.2 0 0 1-.75-.954q-.313-.585-.477-1.421a10.3 10.3 0 0 1-.164-1.954v-1.734q0-1.398.25-2.344.258-.945.727-1.515a2.63 2.63 0 0 1 1.125-.828q.663-.25 1.484-.25.664 0 1.219.164.562.156 1 .507.438.345.742.922.312.571.477 1.399t.164 1.945m-1.453 1.969v-2.211q0-.766-.094-1.344a4.2 4.2 0 0 0-.258-1q-.172-.414-.438-.672a1.5 1.5 0 0 0-.601-.375 2.2 2.2 0 0 0-.758-.125 2.04 2.04 0 0 0-.914.196q-.399.187-.672.601-.265.414-.406 1.086t-.141 1.633v2.211q0 .766.086 1.351.094.587.274 1.016.179.422.437.695.258.274.594.407.344.125.758.125.531 0 .929-.204a1.67 1.67 0 0 0 .664-.632q.274-.437.407-1.118a9 9 0 0 0 .133-1.64m3.507-3.961v-.602q0-.648.281-1.179.282-.532.805-.852t1.242-.32q.735 0 1.25.32.523.32.805.852.28.531.281 1.179v.602q0 .633-.281 1.164a2.1 2.1 0 0 1-.797.851q-.516.321-1.242.321-.727 0-1.258-.321a2.2 2.2 0 0 1-.805-.851 2.45 2.45 0 0 1-.281-1.164m1.086-.602v.602q0 .359.133.68.14.32.422.523.281.195.703.195t.695-.195a1.2 1.2 0 0 0 .406-.523q.133-.321.133-.68v-.602q0-.367-.14-.687a1.15 1.15 0 0 0-.415-.524q-.273-.203-.695-.203-.414 0-.695.203-.273.196-.414.524a1.8 1.8 0 0 0-.133.687m4.453 7.008v-.609q0-.64.281-1.172t.805-.852 1.242-.32q.735 0 1.25.32.523.321.805.852.28.531.281 1.172v.609q0 .64-.281 1.172a2.13 2.13 0 0 1-.797.852q-.516.32-1.242.32-.727 0-1.25-.32a2.25 2.25 0 0 1-.813-.852 2.5 2.5 0 0 1-.281-1.172m1.086-.609v.609q0 .36.133.688.14.32.422.523.281.195.703.195t.695-.195q.282-.203.414-.523.133-.32.133-.688v-.609a1.7 1.7 0 0 0-.141-.688 1.14 1.14 0 0 0-.414-.515q-.273-.204-.703-.204a1.15 1.15 0 0 0-1.109.719 1.8 1.8 0 0 0-.133.688m1.602-6.969-5.555 8.891-.813-.516 5.555-8.891zm11.921 1.305v1.109h-4.57v-1.109zm-3.024-2.055h1.446v8.414q0 .43.133.648a.64.64 0 0 0 .343.29q.212.07.453.07.18 0 .375-.031.204-.039.305-.063l.008 1.18q-.173.054-.453.101a3.4 3.4 0 0 1-.664.055q-.531 0-.977-.211a1.57 1.57 0 0 1-.711-.703q-.258-.5-.258-1.344zm6.484 3.383v7.125h-1.445v-8.453h1.406zm2.641-1.375-.008 1.344a2 2 0 0 0-.343-.047 4 4 0 0 0-.36-.016 2.3 2.3 0 0 0-.883.156q-.382.156-.648.438a2.1 2.1 0 0 0-.422.672 3.2 3.2 0 0 0-.195.843l-.407.235q0-.766.149-1.438a3.9 3.9 0 0 1 .476-1.187q.321-.524.813-.813.5-.297 1.187-.297.157 0 .36.039.203.032.281.071m6.328 7.054v-4.351a1.8 1.8 0 0 0-.203-.867 1.33 1.33 0 0 0-.594-.578q-.399-.204-.984-.204-.547 0-.961.188a1.7 1.7 0 0 0-.641.492 1.08 1.08 0 0 0-.226.656h-1.446q0-.453.235-.898t.671-.805a3.4 3.4 0 0 1 1.063-.578q.625-.219 1.391-.219.921 0 1.625.313.71.312 1.109.945.406.625.406 1.571v3.937q0 .422.071.898.078.477.226.821v.125h-1.508a2.7 2.7 0 0 1-.172-.664 5.5 5.5 0 0 1-.062-.782m.25-3.679.016 1.015h-1.461q-.618 0-1.102.102a2.5 2.5 0 0 0-.812.289q-.329.195-.5.492-.172.29-.172.68 0 .399.179.726.18.329.539.524.368.187.899.187.664 0 1.172-.281.508-.28.804-.687.305-.406.329-.789l.617.695a2.1 2.1 0 0 1-.297.726 3.5 3.5 0 0 1-.649.766 3.5 3.5 0 0 1-.953.602 3.1 3.1 0 0 1-1.234.234q-.86 0-1.508-.336a2.6 2.6 0 0 1-1-.898 2.4 2.4 0 0 1-.351-1.274q0-.68.265-1.195a2.3 2.3 0 0 1 .766-.867 3.6 3.6 0 0 1 1.203-.532 6.4 6.4 0 0 1 1.57-.179zm7.171 4.094q.516 0 .954-.211.437-.212.718-.579.282-.375.321-.851h1.375a2.6 2.6 0 0 1-.508 1.398 3.46 3.46 0 0 1-1.211 1.039 3.5 3.5 0 0 1-1.649.391q-.953 0-1.664-.336a3.3 3.3 0 0 1-1.171-.922 4.1 4.1 0 0 1-.696-1.344 5.7 5.7 0 0 1-.226-1.617v-.328q0-.852.226-1.609a4.1 4.1 0 0 1 .696-1.352q.469-.585 1.171-.922.711-.336 1.664-.336.993 0 1.735.407.743.398 1.164 1.093.43.688.469 1.563h-1.375a2.1 2.1 0 0 0-.297-.945 1.84 1.84 0 0 0-.688-.672 1.9 1.9 0 0 0-1.008-.258q-.664 0-1.117.266a1.95 1.95 0 0 0-.711.703 3.3 3.3 0 0 0-.375.976 5.4 5.4 0 0 0-.109 1.086v.328q0 .555.109 1.094.11.539.368.977.266.437.71.703.454.258 1.125.258m8.821 1.187a4.2 4.2 0 0 1-1.602-.297 3.6 3.6 0 0 1-1.227-.851 3.8 3.8 0 0 1-.781-1.297 4.8 4.8 0 0 1-.273-1.641v-.328q0-1.031.304-1.836.306-.813.829-1.375a3.5 3.5 0 0 1 1.187-.852 3.4 3.4 0 0 1 1.375-.289q.906 0 1.563.313.663.312 1.085.875.423.555.625 1.312.204.75.204 1.641v.648h-6.313v-1.179h4.867v-.11a3.6 3.6 0 0 0-.234-1.093 1.97 1.97 0 0 0-.625-.875q-.43-.344-1.172-.344a1.96 1.96 0 0 0-1.617.82 3.1 3.1 0 0 0-.461.992 5 5 0 0 0-.164 1.352v.328q0 .602.164 1.133.172.523.492.922.328.398.789.625.47.226 1.063.226.765 0 1.297-.312t.929-.836l.875.695a4 4 0 0 1-.695.789q-.422.375-1.039.61-.61.234-1.445.234m14.507-2.398q0-.313-.141-.579-.132-.273-.555-.492-.414-.227-1.25-.39a10 10 0 0 1-1.273-.352 4 4 0 0 1-.961-.492 2.1 2.1 0 0 1-.602-.68 1.9 1.9 0 0 1-.211-.914q0-.5.219-.945a2.5 2.5 0 0 1 .633-.789q.414-.344.992-.539t1.289-.196q1.016 0 1.735.36.718.359 1.101.961.383.594.383 1.32h-1.445q0-.351-.211-.68a1.56 1.56 0 0 0-.602-.554q-.39-.219-.961-.219-.601 0-.976.187-.368.18-.539.461-.164.282-.164.594 0 .234.078.422a.9.9 0 0 0 .297.336q.21.149.593.281.384.133.977.266 1.04.235 1.711.562.672.328 1 .805t.328 1.156q0 .555-.234 1.016a2.26 2.26 0 0 1-.664.797q-.43.327-1.032.515a4.6 4.6 0 0 1-1.336.18q-1.117 0-1.89-.398-.774-.399-1.172-1.032a2.47 2.47 0 0 1-.399-1.336h1.454q.03.594.343.946.313.344.766.492.453.141.898.141.594 0 .993-.157.405-.156.617-.429.21-.274.211-.625m8.648.796v-4.351a1.8 1.8 0 0 0-.203-.867 1.33 1.33 0 0 0-.594-.578q-.399-.204-.984-.204-.547 0-.961.188a1.7 1.7 0 0 0-.641.492 1.08 1.08 0 0 0-.227.656h-1.445q0-.453.234-.898t.672-.805a3.4 3.4 0 0 1 1.063-.578q.625-.219 1.39-.219.923 0 1.625.313.711.312 1.11.945.406.625.406 1.571v3.937q0 .422.07.898.079.477.227.821v.125h-1.508a2.7 2.7 0 0 1-.172-.664 5.5 5.5 0 0 1-.062-.782m.25-3.679.015 1.015h-1.461q-.616 0-1.101.102a2.5 2.5 0 0 0-.813.289 1.4 1.4 0 0 0-.5.492q-.171.29-.171.68 0 .399.179.726.18.329.539.524.368.187.899.187.663 0 1.172-.281.507-.28.804-.687.305-.406.328-.789l.618.695a2.1 2.1 0 0 1-.297.726 3.5 3.5 0 0 1-.649.766 3.5 3.5 0 0 1-.953.602 3.1 3.1 0 0 1-1.234.234q-.86 0-1.508-.336a2.6 2.6 0 0 1-1-.898 2.4 2.4 0 0 1-.352-1.274q0-.68.266-1.195a2.3 2.3 0 0 1 .766-.867 3.6 3.6 0 0 1 1.203-.532 6.4 6.4 0 0 1 1.57-.179zm5.226-1.649v6.774h-1.453v-8.453h1.375zm-.297 2.227-.672-.024a5.8 5.8 0 0 1 .227-1.601q.219-.743.648-1.289a2.9 2.9 0 0 1 1.071-.844q.64-.305 1.484-.305.594 0 1.094.172.5.165.867.524a2.4 2.4 0 0 1 .57.922q.204.563.203 1.359v5.633h-1.445v-5.563q0-.664-.227-1.062a1.3 1.3 0 0 0-.625-.578 2.25 2.25 0 0 0-.953-.188q-.64 0-1.07.227a1.8 1.8 0 0 0-.687.625q-.258.398-.375.914-.11.507-.11 1.078m5.477-.797-.969.297q.008-.696.227-1.336a3.6 3.6 0 0 1 .648-1.141 3.1 3.1 0 0 1 1.055-.789q.625-.297 1.429-.297.68 0 1.203.18.533.18.891.555.368.367.555.945.187.579.187 1.375v5.555h-1.453v-5.571q0-.71-.226-1.101a1.18 1.18 0 0 0-.625-.555 2.5 2.5 0 0 0-.954-.164q-.475 0-.843.164-.368.165-.617.453a2 2 0 0 0-.383.649 2.4 2.4 0 0 0-.125.781m9.179-1.484v10.078h-1.453v-11.703h1.328zm5.695 2.531v.164q0 .922-.218 1.711-.22.781-.641 1.359a2.9 2.9 0 0 1-1.023.899q-.61.32-1.399.32-.804 0-1.422-.266a2.8 2.8 0 0 1-1.047-.773 4 4 0 0 1-.687-1.219 7 7 0 0 1-.344-1.601v-.875q.094-.937.352-1.68t.679-1.266a2.8 2.8 0 0 1 1.04-.804q.61-.282 1.406-.282t1.414.313q.617.305 1.039.875a4 4 0 0 1 .633 1.367 6.6 6.6 0 0 1 .218 1.758m-1.453.164v-.164q0-.633-.132-1.188a3 3 0 0 0-.415-.984 2 2 0 0 0-.703-.672q-.429-.25-1.023-.25-.547 0-.953.188a2.1 2.1 0 0 0-.68.507 2.7 2.7 0 0 0-.461.719 4.2 4.2 0 0 0-.258.828v2.024q.156.546.438 1.031.28.477.75.773.469.29 1.18.29.585 0 1.007-.243a2 2 0 0 0 .703-.679q.282-.43.415-.985.132-.562.132-1.195m5.188-7.867v12h-1.454v-12zm6.148 12.156a4.2 4.2 0 0 1-1.602-.297 3.6 3.6 0 0 1-1.226-.851 3.8 3.8 0 0 1-.782-1.297 4.8 4.8 0 0 1-.273-1.641v-.328q0-1.031.305-1.836.305-.813.828-1.375a3.55 3.55 0 0 1 1.187-.852 3.4 3.4 0 0 1 1.375-.289q.906 0 1.563.313.663.312 1.086.875.421.555.625 1.312.203.75.203 1.641v.648h-6.313v-1.179h4.867v-.11a3.6 3.6 0 0 0-.234-1.093 1.97 1.97 0 0 0-.625-.875q-.43-.344-1.172-.344a1.96 1.96 0 0 0-1.617.82 3.1 3.1 0 0 0-.461.992 5 5 0 0 0-.164 1.352v.328q0 .602.164 1.133.172.523.492.922.329.398.789.625.47.226 1.063.226.765 0 1.297-.312t.929-.836l.875.695a4 4 0 0 1-.695.789q-.422.375-1.039.61-.61.234-1.445.234M503.537 361.3l-3.766 10.367h-1.539l4.336-11.375h.992zm3.156 10.367-3.774-10.367-.023-1.008h.992l4.352 11.375zm-.195-4.211v1.235h-6.391v-1.235zm4.937-7.789v12h-1.453v-12zm4.21 0v12h-1.453v-12zm10.469 3.547v1.11h-4.571v-1.11zm-3.024-2.055h1.445v8.415q0 .429.133.648a.64.64 0 0 0 .344.289q.212.07.453.07.18 0 .375-.031.203-.04.305-.062l.008 1.179a3 3 0 0 1-.453.102 3.5 3.5 0 0 1-.665.055 2.3 2.3 0 0 1-.976-.211 1.57 1.57 0 0 1-.711-.704q-.258-.5-.258-1.343zm6.484 3.383v7.125h-1.445v-8.453h1.406zm2.641-1.375-.008 1.344a2 2 0 0 0-.344-.047 4 4 0 0 0-.359-.015q-.5 0-.883.156t-.648.437a2.1 2.1 0 0 0-.422.672 3.3 3.3 0 0 0-.196.844l-.406.234q0-.765.149-1.437.156-.672.476-1.188a2.34 2.34 0 0 1 .813-.812q.5-.297 1.187-.297.156 0 .36.039.203.031.281.07m6.328 7.055v-4.352q0-.5-.204-.867a1.33 1.33 0 0 0-.593-.578q-.399-.203-.985-.203-.546 0-.961.187-.405.188-.64.493a1.08 1.08 0 0 0-.227.656h-1.445q0-.453.234-.899a2.7 2.7 0 0 1 .672-.804 3.3 3.3 0 0 1 1.063-.578q.625-.219 1.39-.219.923 0 1.625.312.711.313 1.11.946.406.625.406 1.57v3.938q0 .421.07.898.078.477.227.82v.125h-1.508a2.7 2.7 0 0 1-.172-.664 5 5 0 0 1-.062-.781m.25-3.68.015 1.016h-1.461q-.617 0-1.101.101a2.5 2.5 0 0 0-.813.29q-.328.195-.5.492a1.3 1.3 0 0 0-.172.679q0 .399.18.727t.539.523q.367.188.899.188.663 0 1.171-.281t.805-.688q.305-.406.328-.789l.617.695q-.054.328-.296.727a3.5 3.5 0 0 1-1.602 1.367 3.1 3.1 0 0 1-1.234.235q-.86 0-1.508-.336a2.6 2.6 0 0 1-1-.899 2.37 2.37 0 0 1-.352-1.273q0-.68.266-1.196.266-.523.765-.867a3.7 3.7 0 0 1 1.204-.531 6.3 6.3 0 0 1 1.57-.18zm7.171 4.094q.516 0 .953-.211a1.96 1.96 0 0 0 .719-.578q.281-.375.32-.852h1.375q-.039.75-.507 1.399a3.48 3.48 0 0 1-2.86 1.43q-.953 0-1.664-.336a3.3 3.3 0 0 1-1.172-.922 4.1 4.1 0 0 1-.695-1.344 5.7 5.7 0 0 1-.227-1.617v-.328q0-.851.227-1.61.234-.765.695-1.351a3.3 3.3 0 0 1 1.172-.922q.711-.336 1.664-.336.993 0 1.735.406.741.399 1.164 1.094.429.687.468 1.562h-1.375a2.1 2.1 0 0 0-.296-.945 1.86 1.86 0 0 0-.688-.672 1.9 1.9 0 0 0-1.008-.258q-.664 0-1.117.266a1.96 1.96 0 0 0-.711.703 3.3 3.3 0 0 0-.375.977 5.4 5.4 0 0 0-.109 1.086v.328q0 .555.109 1.094.11.538.367.976.266.438.711.703.453.258 1.125.258m8.82 1.188a4.2 4.2 0 0 1-1.601-.297 3.6 3.6 0 0 1-1.227-.852 3.8 3.8 0 0 1-.781-1.297 4.8 4.8 0 0 1-.274-1.64v-.329q0-1.03.305-1.835.304-.813.828-1.375a3.55 3.55 0 0 1 1.188-.852 3.4 3.4 0 0 1 1.375-.289q.906 0 1.562.312.664.313 1.086.875.422.555.625 1.313.204.75.203 1.641v.648h-6.312v-1.18h4.867v-.109a3.6 3.6 0 0 0-.234-1.094 2 2 0 0 0-.625-.875q-.43-.344-1.172-.344-.492 0-.907.211a1.94 1.94 0 0 0-.711.61 3.1 3.1 0 0 0-.46.992q-.165.586-.165 1.351v.329q0 .601.165 1.132.171.524.492.922.328.399.789.625.468.227 1.062.227.766 0 1.297-.313.531-.312.93-.836l.875.696a4 4 0 0 1-.695.789 3.3 3.3 0 0 1-1.04.609q-.61.235-1.445.235m10.219-2.399q0-.312-.141-.578-.133-.273-.555-.492-.413-.226-1.25-.391a10 10 0 0 1-1.273-.351 4 4 0 0 1-.961-.493 2.1 2.1 0 0 1-.602-.679 1.9 1.9 0 0 1-.211-.914q0-.5.219-.946a2.5 2.5 0 0 1 .633-.789q.414-.344.992-.539t1.289-.195q1.015 0 1.735.359.719.36 1.101.961.383.594.383 1.321h-1.445q0-.352-.211-.68a1.56 1.56 0 0 0-.602-.555q-.39-.219-.961-.219-.601 0-.976.188-.368.18-.539.461-.164.28-.164.594 0 .234.078.421a.9.9 0 0 0 .297.336q.21.148.593.282t.977.265q1.04.235 1.711.563.672.328 1 .804t.328 1.157q0 .555-.234 1.015a2.25 2.25 0 0 1-.665.797 3.3 3.3 0 0 1-1.031.516 4.6 4.6 0 0 1-1.336.18q-1.117 0-1.89-.399-.774-.399-1.172-1.031a2.47 2.47 0 0 1-.399-1.336h1.453q.032.594.344.945.313.344.766.492.453.141.898.141.594 0 .992-.156.407-.156.618-.43a1 1 0 0 0 .211-.625M247.016 66.894h1.5a4.8 4.8 0 0 1-.618 1.93 3.6 3.6 0 0 1-1.414 1.351q-.913.493-2.281.493a4.3 4.3 0 0 1-1.82-.376 4.05 4.05 0 0 1-1.399-1.062 5 5 0 0 1-.906-1.664q-.312-.976-.312-2.172v-1.133q0-1.195.312-2.164a4.9 4.9 0 0 1 .914-1.672q.602-.695 1.445-1.07t1.899-.375q1.289 0 2.18.484a3.47 3.47 0 0 1 1.382 1.344q.5.852.618 1.977h-1.5q-.11-.797-.407-1.367a2.1 2.1 0 0 0-.843-.891q-.548-.313-1.43-.313-.758 0-1.336.29a2.7 2.7 0 0 0-.961.82 3.8 3.8 0 0 0-.578 1.273 6.5 6.5 0 0 0-.195 1.649v1.148q0 .835.171 1.57.18.735.54 1.29.359.554.914.874.554.313 1.312.313.961 0 1.531-.305.571-.305.86-.875.296-.57.422-1.367m8.64 2.172v-4.352q0-.5-.203-.867a1.33 1.33 0 0 0-.594-.578q-.399-.203-.984-.203-.547 0-.961.187-.407.188-.641.493a1.08 1.08 0 0 0-.226.656h-1.446q0-.453.235-.899a2.6 2.6 0 0 1 .671-.804 3.4 3.4 0 0 1 1.063-.578 4.2 4.2 0 0 1 1.391-.22q.921 0 1.625.313.71.313 1.109.946.406.625.406 1.57v3.938q0 .42.071.898.078.477.226.82v.125h-1.508a2.7 2.7 0 0 1-.172-.664 5.5 5.5 0 0 1-.062-.781m.25-3.68.016 1.016h-1.461q-.618 0-1.102.101a2.5 2.5 0 0 0-.812.29q-.329.195-.5.492-.172.288-.172.68 0 .397.179.726.18.328.539.523.368.188.899.188a2.4 2.4 0 0 0 1.172-.281q.508-.282.804-.688.305-.406.329-.789l.617.695q-.055.329-.297.727-.243.398-.649.766-.398.36-.953.601a3.1 3.1 0 0 1-1.234.234q-.86 0-1.508-.335a2.6 2.6 0 0 1-1-.899 2.4 2.4 0 0 1-.351-1.273q0-.68.265-1.196.265-.523.766-.867a3.6 3.6 0 0 1 1.203-.531q.703-.18 1.57-.18zm5.359-6.875v12h-1.453v-12zm4.211 0v12h-1.454v-12zm210.956 29.625h3.766q1.282 0 2.164.39.89.392 1.352 1.157.468.758.468 1.867 0 .782-.32 1.43-.312.64-.906 1.094-.587.445-1.406.664l-.422.164h-3.539l-.016-1.227h2.672q.813 0 1.351-.281.54-.289.813-.773t.273-1.07q0-.657-.257-1.15a1.72 1.72 0 0 0-.813-.757q-.547-.273-1.414-.273h-2.258v10.14h-1.508zm6.649 11.375-2.766-5.156 1.571-.008 2.804 5.07v.094zm6.82.157a4.2 4.2 0 0 1-1.602-.297 3.6 3.6 0 0 1-1.226-.852 3.8 3.8 0 0 1-.782-1.297 4.8 4.8 0 0 1-.273-1.64v-.329q0-1.031.305-1.835.305-.812.828-1.376a3.55 3.55 0 0 1 1.187-.851 3.4 3.4 0 0 1 1.375-.29q.907 0 1.563.313.664.313 1.086.875.421.555.625 1.313.203.75.203 1.64v.649h-6.313v-1.18h4.868v-.11a3.6 3.6 0 0 0-.235-1.093 1.96 1.96 0 0 0-.625-.875q-.43-.345-1.172-.344a1.97 1.97 0 0 0-1.617.82q-.296.407-.461.993-.164.585-.164 1.351v.329q0 .6.164 1.132.173.525.492.922.329.399.789.625.47.227 1.063.227.765 0 1.297-.313a3.2 3.2 0 0 0 .93-.836l.875.696a4 4 0 0 1-.696.789q-.421.375-1.039.61-.61.233-1.445.234m8.835-8.61v1.11h-4.57v-1.11zm-3.023-2.055h1.445v8.415q0 .429.133.648a.64.64 0 0 0 .344.289q.212.07.453.07.18 0 .375-.031.203-.04.305-.062l.008 1.18q-.172.055-.454.1a3.4 3.4 0 0 1-.664.056 2.25 2.25 0 0 1-.976-.212q-.446-.21-.711-.703-.258-.499-.258-1.343zm10.211 8.555v-6.5h1.453v8.453h-1.383zm.273-1.781.602-.016q0 .845-.18 1.563a3.4 3.4 0 0 1-.563 1.234q-.39.524-1.023.82-.633.29-1.539.29-.617 0-1.133-.18a2.3 2.3 0 0 1-.875-.555q-.367-.374-.57-.977-.195-.6-.195-1.445v-5.453h1.445v5.469q0 .57.125.945.133.367.351.586.227.21.5.297.282.086.579.086.921 0 1.46-.352a2 2 0 0 0 .774-.96q.242-.61.242-1.352m5.148-3.39v7.124H509.9v-8.453h1.406zm2.641-1.376-.008 1.344a2 2 0 0 0-.344-.047 4 4 0 0 0-.359-.016q-.5 0-.883.157-.382.156-.648.437a2.1 2.1 0 0 0-.422.672 3.3 3.3 0 0 0-.196.844l-.406.234q0-.766.149-1.437.156-.672.476-1.188a2.34 2.34 0 0 1 .813-.812q.5-.297 1.187-.297.156 0 .36.039.203.03.281.07m3.101 1.852v6.648h-1.445v-8.453h1.367zm-.344 2.101-.601-.023a5 5 0 0 1 .258-1.602q.25-.741.703-1.289a3.13 3.13 0 0 1 2.476-1.148q.625 0 1.125.172.5.164.852.531.359.368.547.953.187.578.187 1.414v5.54h-1.453v-5.555q0-.664-.195-1.063a1.2 1.2 0 0 0-.571-.586q-.375-.187-.921-.187-.54 0-.985.226-.437.227-.758.625-.312.398-.492.914a3.4 3.4 0 0 0-.172 1.078m-23.241-28.07h1.5a4.8 4.8 0 0 1-.617 1.93 3.6 3.6 0 0 1-1.414 1.351q-.914.493-2.281.493a4.3 4.3 0 0 1-1.82-.376 4.05 4.05 0 0 1-1.399-1.062 5 5 0 0 1-.906-1.664q-.312-.976-.313-2.172v-1.133q0-1.195.313-2.164a4.9 4.9 0 0 1 .914-1.672q.602-.695 1.445-1.07.845-.375 1.899-.375 1.289 0 2.179.484.891.484 1.383 1.344.5.852.617 1.977h-1.5q-.108-.797-.406-1.367a2.1 2.1 0 0 0-.844-.891q-.546-.313-1.429-.313-.758 0-1.336.29a2.7 2.7 0 0 0-.961.82 3.8 3.8 0 0 0-.578 1.273 6.5 6.5 0 0 0-.196 1.649v1.148q0 .835.172 1.57.18.735.539 1.29.36.554.914.874.555.313 1.313.313.961 0 1.531-.305t.86-.875q.296-.57.421-1.367m8.641 2.172v-4.352q0-.5-.203-.867a1.34 1.34 0 0 0-.594-.578q-.399-.203-.985-.203-.546 0-.96.187-.407.188-.641.493a1.08 1.08 0 0 0-.227.656h-1.445q0-.453.234-.899.235-.445.672-.804a3.4 3.4 0 0 1 1.063-.578q.625-.22 1.39-.22.923 0 1.625.313.711.313 1.11.946.406.625.406 1.57v3.938q0 .42.07.898.078.477.227.82v.125h-1.508a2.7 2.7 0 0 1-.172-.664 5.5 5.5 0 0 1-.062-.781m.25-3.68.015 1.016h-1.461q-.616 0-1.101.101a2.5 2.5 0 0 0-.813.29q-.327.195-.5.492a1.3 1.3 0 0 0-.172.68q0 .397.18.726t.539.523q.368.188.899.188.663 0 1.172-.281.507-.282.804-.688.305-.406.328-.789l.618.695q-.055.329-.297.727-.243.398-.649.766-.398.36-.953.601a3.1 3.1 0 0 1-1.234.234q-.86 0-1.508-.335a2.6 2.6 0 0 1-1-.899 2.4 2.4 0 0 1-.352-1.273q0-.68.266-1.196.265-.523.766-.867a3.6 3.6 0 0 1 1.203-.531 6.3 6.3 0 0 1 1.57-.18zm5.359-6.875v12h-1.453v-12zm4.21 0v12h-1.453v-12z"/><path stroke="#D865F2" stroke-linecap="round" stroke-width="10" d="M60.313 190.292h71.499"/><path stroke="#F7B718" stroke-linecap="round" stroke-width="10" d="M145.812 190.292h71.5"/><path stroke="#A98B2D" stroke-linecap="round" stroke-width="10" d="M231.312 190.292h39.251"/><path stroke="#FF9788" stroke-linecap="round" stroke-width="10" d="M284.562 190.292h25.251"/><path stroke="#D01C1F" stroke-linecap="round" stroke-width="10" d="M323.812 190.292h4.324"/><path stroke="#F7B718" stroke-linecap="round" stroke-width="10" d="M342.137 190.292h66.5"/><path stroke="#00D021" stroke-linecap="round" stroke-width="10" d="M422.637 190.292h66.5"/><path stroke="#96B3DE" stroke-linecap="round" stroke-width="10" d="M503.137 190.292h66.5"/><path stroke="#763374" stroke-linecap="round" stroke-width="10" d="M583.637 190.292h4"/><path stroke="#00B1D2" stroke-linecap="round" stroke-width="10" d="M601.637 190.292h90"/><path stroke="#763374" stroke-linecap="round" stroke-width="10" d="M691.312 209.266h-71.499"/><path stroke="#F7B718" stroke-linecap="round" stroke-width="10" d="M605.812 209.266h-71.499"/><path stroke="#00B1D2" stroke-linecap="round" stroke-width="10" d="M520.312 209.266h-39.25"/><path stroke="#DDB7E6" stroke-linecap="round" stroke-width="10" d="M467.062 209.266h-25.25"/><path stroke="#D01C1F" stroke-linecap="round" stroke-width="10" d="M427.812 209.266h-4.323"/><path stroke="#F7B718" stroke-linecap="round" stroke-width="10" d="M409.488 209.266h-66.5"/><path stroke="#FC8F9B" stroke-linecap="round" stroke-width="10" d="M328.988 209.266h-66.5"/><path stroke="#96B3DE" stroke-linecap="round" stroke-width="10" d="M248.488 209.266h-66.5"/><path stroke="#763374" stroke-linecap="round" stroke-width="10" d="M167.988 209.266h-4"/><path stroke="#00D021" stroke-linecap="round" stroke-width="10" d="M149.988 209.266h-90"/><path fill="#fff" stroke="#000" stroke-width="4" d="M866.236 553.817h-136.47c-6.372 0-12.555-4.644-17.26-13.062-4.668-8.353-7.618-20.027-7.618-33.032 0-12.934 3.528-24.603 8.506-32.986 2.49-4.192 5.309-7.508 8.173-9.755 2.873-2.254 5.68-3.352 8.199-3.352h136.906z"/><path fill="#fff" stroke="#000" stroke-width="4" d="M895.136 507.723c0 13.005-2.949 24.679-7.617 33.032-4.704 8.418-10.887 13.062-17.258 13.062s-12.553-4.644-17.258-13.062c-4.667-8.353-7.617-20.027-7.617-33.032s2.95-24.679 7.617-33.032c4.705-8.418 10.887-13.061 17.258-13.061s12.554 4.643 17.258 13.061c4.668 8.353 7.617 20.028 7.617 33.032Z"/><path fill="#572961" d="M723.919 504.387h-3.096l.02-2.285h3.076q1.152 0 1.943-.517.792-.528 1.192-1.534.41-1.005.41-2.431v-.694q0-1.094-.235-1.923-.224-.83-.673-1.397a2.8 2.8 0 0 0-1.104-.85q-.654-.293-1.504-.293h-3.183v-2.294h3.183q1.426 0 2.608.488a5.9 5.9 0 0 1 2.06 1.377 6.1 6.1 0 0 1 1.338 2.148q.479 1.24.479 2.764v.674q0 1.514-.479 2.763a6.1 6.1 0 0 1-1.338 2.149 6 6 0 0 1-2.06 1.377q-1.192.478-2.637.478m-1.436-14.218v14.218h-2.929v-14.218zm13.271 3.652v10.566h-2.822v-10.566zm-2.998-2.754q0-.615.43-1.016.43-.4 1.152-.4.714 0 1.143.4.44.4.44 1.016 0 .615-.44 1.016-.429.4-1.143.4-.721 0-1.152-.4a1.33 1.33 0 0 1-.43-1.016m8.535 4.941v8.379h-2.822v-10.566h2.646zm-.39 2.725h-.782q0-1.104.264-2.031a5 5 0 0 1 .791-1.621 3.6 3.6 0 0 1 1.299-1.075q.771-.38 1.787-.38.703 0 1.289.214.586.205 1.006.655.43.44.664 1.152.234.703.234 1.689v7.051h-2.812v-6.738q0-.723-.195-1.113a1.1 1.1 0 0 0-.557-.547 2.1 2.1 0 0 0-.85-.156q-.546 0-.957.224-.4.225-.664.625a2.8 2.8 0 0 0-.39.918 4.8 4.8 0 0 0-.127 1.133m6.289-.322-1.006.127q0-1.036.254-1.924a4.9 4.9 0 0 1 .771-1.563 3.6 3.6 0 0 1 1.279-1.045q.762-.38 1.758-.38.762 0 1.387.224a2.54 2.54 0 0 1 1.064.694q.45.468.684 1.23.244.762.244 1.865v6.748h-2.822v-6.748q0-.732-.195-1.113a1.02 1.02 0 0 0-.547-.537 2.1 2.1 0 0 0-.84-.156q-.508 0-.889.205-.38.195-.635.547a2.5 2.5 0 0 0-.38.82 3.8 3.8 0 0 0-.127 1.006m13.876 6.172q-1.23 0-2.207-.391a4.85 4.85 0 0 1-1.66-1.104 4.9 4.9 0 0 1-1.035-1.63 5.5 5.5 0 0 1-.361-1.993v-.39q0-1.201.341-2.197a5.2 5.2 0 0 1 .977-1.729q.644-.733 1.562-1.123.918-.4 2.071-.4 1.122 0 1.992.371a3.9 3.9 0 0 1 1.455 1.054q.596.684.898 1.641.303.947.303 2.109v1.172h-8.398v-1.875h5.634v-.215q0-.585-.214-1.045a1.67 1.67 0 0 0-.625-.742q-.42-.273-1.075-.273-.557 0-.957.244a1.9 1.9 0 0 0-.654.684 3.7 3.7 0 0 0-.371 1.035q-.117.585-.117 1.289v.39q0 .636.176 1.172.185.538.517.928.342.39.82.605.489.215 1.104.215.762 0 1.416-.293a3.05 3.05 0 0 0 1.143-.908l1.367 1.485a4.2 4.2 0 0 1-.908.917 4.9 4.9 0 0 1-1.368.723q-.8.274-1.826.274m9.092-8.506v8.31h-2.813v-10.566h2.637zm-.411 2.656h-.761q0-1.171.302-2.109.304-.948.85-1.612a3.65 3.65 0 0 1 1.299-1.025 3.9 3.9 0 0 1 1.699-.361q.742 0 1.358.214a2.6 2.6 0 0 1 1.054.684q.45.469.684 1.24.244.772.244 1.885v6.738h-2.832v-6.748q0-.703-.195-1.094a1.1 1.1 0 0 0-.577-.546q-.37-.166-.918-.166-.566 0-.986.224-.41.225-.683.625-.264.392-.401.918a4.5 4.5 0 0 0-.137 1.133m14.981 2.734a.9.9 0 0 0-.176-.547q-.176-.243-.655-.449-.468-.214-1.357-.39a11 11 0 0 1-1.494-.44 5.2 5.2 0 0 1-1.192-.654 2.85 2.85 0 0 1-.781-.899 2.5 2.5 0 0 1-.283-1.201q0-.663.283-1.25.293-.585.83-1.035a3.9 3.9 0 0 1 1.328-.713q.792-.263 1.778-.263 1.377 0 2.363.439.996.44 1.524 1.211.537.762.537 1.738h-2.813q0-.41-.176-.732a1.16 1.16 0 0 0-.527-.518q-.351-.195-.918-.195-.468 0-.811.166a1.24 1.24 0 0 0-.527.43 1.03 1.03 0 0 0-.176.586 1 1 0 0 0 .098.439q.108.186.342.342t.605.293q.381.127.938.234a11 11 0 0 1 2.041.615q.898.371 1.426 1.016.527.635.527 1.67 0 .703-.313 1.289a3.1 3.1 0 0 1-.898 1.025 4.6 4.6 0 0 1-1.406.674 6.6 6.6 0 0 1-1.826.235q-1.476 0-2.5-.528-1.017-.526-1.543-1.338-.518-.82-.518-1.679h2.666q.02.576.293.927.283.352.713.508.44.156.947.156.547 0 .908-.146.362-.156.547-.41a1 1 0 0 0 .196-.606m7.929-7.646v10.566h-2.822v-10.566zm-2.998-2.754q0-.615.429-1.016.43-.4 1.153-.4.713 0 1.142.4.44.4.44 1.016 0 .615-.44 1.016-.43.4-1.142.4-.723 0-1.153-.4a1.33 1.33 0 0 1-.429-1.016m5.273 8.144v-.205q0-1.161.332-2.138a4.9 4.9 0 0 1 .967-1.709 4.3 4.3 0 0 1 1.562-1.123q.928-.41 2.129-.41t2.139.41a4.3 4.3 0 0 1 1.572 1.123 4.9 4.9 0 0 1 .977 1.709q.332.977.332 2.138v.205a6.7 6.7 0 0 1-.332 2.139 5 5 0 0 1-.977 1.709 4.3 4.3 0 0 1-1.562 1.123q-.929.4-2.129.401-1.202 0-2.139-.401a4.4 4.4 0 0 1-1.572-1.123 5 5 0 0 1-.967-1.709 6.7 6.7 0 0 1-.332-2.139m2.812-.205v.205q0 .665.118 1.241.116.576.371 1.015.263.43.683.674t1.026.244q.586 0 1.005-.244.42-.244.674-.674.254-.44.371-1.015a5.7 5.7 0 0 0 .127-1.241v-.205q0-.644-.127-1.211a3.2 3.2 0 0 0-.38-1.015 1.9 1.9 0 0 0-.674-.703q-.42-.255-1.016-.254-.596 0-1.016.254a2 2 0 0 0-.673.703q-.255.44-.371 1.015a6 6 0 0 0-.118 1.211m12.08-2.929v8.31h-2.812v-10.566h2.636zm-.41 2.656h-.762q0-1.171.303-2.109.303-.948.849-1.612a3.65 3.65 0 0 1 1.299-1.025 3.9 3.9 0 0 1 1.7-.361 4.1 4.1 0 0 1 1.357.214q.615.215 1.055.684.449.469.683 1.24.244.772.244 1.885v6.738h-2.832v-6.748q0-.703-.195-1.094a1.1 1.1 0 0 0-.576-.546q-.372-.166-.918-.166-.567 0-.986.224-.411.225-.684.625a3 3 0 0 0-.4.918 4.5 4.5 0 0 0-.137 1.133m14.97 3.271v-4.707q0-.507-.166-.869a1.24 1.24 0 0 0-.517-.576q-.342-.205-.889-.205-.47 0-.811.166a1.2 1.2 0 0 0-.527.459 1.26 1.26 0 0 0-.186.693h-2.812q0-.673.312-1.279.313-.605.909-1.064a4.5 4.5 0 0 1 1.416-.733 6.1 6.1 0 0 1 1.855-.263q1.23 0 2.188.41a3.34 3.34 0 0 1 1.504 1.23q.556.82.556 2.051v4.521q0 .87.108 1.426.106.548.312.957v.166h-2.842a4 4 0 0 1-.312-1.074 9 9 0 0 1-.098-1.309m.371-4.052.02 1.592h-1.572q-.558 0-.967.126a1.8 1.8 0 0 0-.674.362q-.264.224-.391.527a1.8 1.8 0 0 0-.117.664q0 .361.166.655.166.282.479.449.312.156.732.156.634 0 1.104-.254.468-.254.722-.625.264-.371.274-.703l.742 1.191a5 5 0 0 1-.43.83q-.264.43-.674.811a3.5 3.5 0 0 1-.986.615q-.576.235-1.367.235a4.1 4.1 0 0 1-1.826-.401 3.3 3.3 0 0 1-1.289-1.123 2.95 2.95 0 0 1-.469-1.64q0-.83.312-1.475.313-.645.918-1.084.615-.45 1.534-.674.917-.234 2.128-.234zm7.998-8.565v15h-2.822v-15zm-91.803 35.617v-4.707q0-.507-.166-.869a1.24 1.24 0 0 0-.518-.576q-.342-.205-.888-.205-.47 0-.811.166a1.17 1.17 0 0 0-.527.459 1.26 1.26 0 0 0-.186.693h-2.812q0-.673.312-1.279t.908-1.064a4.5 4.5 0 0 1 1.416-.733 6.1 6.1 0 0 1 1.856-.263q1.23 0 2.187.41.958.41 1.504 1.23.557.82.557 2.051v4.521q0 .87.107 1.426.108.548.313.957v.166h-2.842a4 4 0 0 1-.313-1.074 9 9 0 0 1-.097-1.309m.371-4.052.019 1.592h-1.572q-.556 0-.967.126a1.8 1.8 0 0 0-.673.362q-.264.225-.391.527a1.8 1.8 0 0 0-.117.664q0 .361.166.655.165.282.478.449.313.156.733.156.635 0 1.103-.254.47-.254.723-.625.264-.371.273-.703l.742 1.191a5 5 0 0 1-.429.83 4 4 0 0 1-.674.811 3.5 3.5 0 0 1-.986.615q-.576.234-1.368.235-1.005 0-1.826-.401a3.33 3.33 0 0 1-1.289-1.123 2.95 2.95 0 0 1-.469-1.64q0-.83.313-1.475.312-.645.918-1.084.615-.45 1.533-.674.918-.234 2.129-.234zm7.783-1.875v8.31h-2.813v-10.566h2.637zm-.41 2.656h-.762q0-1.171.303-2.109a4.8 4.8 0 0 1 .849-1.612 3.65 3.65 0 0 1 1.299-1.025 3.9 3.9 0 0 1 1.699-.361q.742 0 1.358.214a2.6 2.6 0 0 1 1.054.684q.45.468.684 1.24.244.772.244 1.885v6.738h-2.832v-6.748q0-.703-.195-1.094a1.1 1.1 0 0 0-.576-.546q-.372-.166-.918-.166a2.06 2.06 0 0 0-.987.224q-.41.225-.683.625-.264.391-.401.918a4.5 4.5 0 0 0-.136 1.133m14.97 3.271v-4.707q0-.507-.166-.869a1.24 1.24 0 0 0-.518-.576q-.342-.205-.888-.205-.47 0-.811.166a1.17 1.17 0 0 0-.527.459 1.26 1.26 0 0 0-.186.693h-2.812q0-.673.312-1.279t.908-1.064q.597-.47 1.416-.733a6.1 6.1 0 0 1 1.856-.263q1.23 0 2.187.41.958.41 1.504 1.23.557.82.557 2.051v4.521q0 .87.107 1.426.108.548.313.957v.166h-2.842a4 4 0 0 1-.312-1.074 9 9 0 0 1-.098-1.309m.371-4.052.019 1.592h-1.572q-.556 0-.967.126a1.8 1.8 0 0 0-.673.362q-.264.225-.391.527a1.8 1.8 0 0 0-.117.664q0 .361.166.655.165.282.478.449.313.156.733.156.635 0 1.103-.254.47-.254.723-.625.264-.371.273-.703l.743 1.191a5 5 0 0 1-.43.83 4 4 0 0 1-.674.811 3.5 3.5 0 0 1-.986.615q-.576.234-1.367.235a4.1 4.1 0 0 1-1.827-.401 3.33 3.33 0 0 1-1.289-1.123 2.95 2.95 0 0 1-.468-1.64q0-.83.312-1.475t.918-1.084q.615-.45 1.533-.674.918-.234 2.129-.234zm7.998-8.565v15h-2.823v-15zm5.859 13.809 2.802-9.375h3.018l-4.248 12.158a7 7 0 0 1-.371.859q-.225.459-.615.87-.382.42-.967.683-.576.264-1.416.264-.4 0-.655-.049a12 12 0 0 1-.605-.137v-2.06h.225q.117.01.224.01.557 0 .908-.127.352-.127.567-.391.214-.254.342-.664zm-1.172-9.375 2.295 7.656.4 2.979-1.914.205-3.799-10.84zm13.691 0v1.992h-6.153v-1.992zm-4.629-2.608h2.812v9.991q0 .459.118.703a.7.7 0 0 0 .371.342q.243.087.615.087.264 0 .469-.019.214-.03.361-.059l.01 2.071q-.362.117-.782.185-.42.069-.927.069-.928 0-1.621-.303a2.23 2.23 0 0 1-1.055-.996q-.37-.684-.371-1.797zm9.599 2.608v10.566h-2.822v-10.566zm-2.998-2.754q0-.615.43-1.016.429-.4 1.152-.4.712 0 1.143.4.44.4.439 1.016 0 .615-.439 1.016-.43.4-1.143.4-.723 0-1.152-.4a1.33 1.33 0 0 1-.43-1.016m10.088 11.318q.518 0 .917-.195.401-.206.625-.566.235-.372.245-.87h2.646a3.5 3.5 0 0 1-.596 1.983 4.1 4.1 0 0 1-1.572 1.357q-.986.489-2.207.489-1.23 0-2.148-.411a4.2 4.2 0 0 1-1.514-1.132 5 5 0 0 1-.908-1.7 7 7 0 0 1-.303-2.089v-.284q0-1.123.303-2.089a4.8 4.8 0 0 1 .908-1.7 4.14 4.14 0 0 1 1.514-1.142q.908-.41 2.129-.41 1.298 0 2.275.498a3.7 3.7 0 0 1 1.543 1.425q.567.918.576 2.178h-2.646a2.2 2.2 0 0 0-.225-.957 1.64 1.64 0 0 0-.605-.684q-.391-.263-.967-.263-.615 0-1.006.263a1.7 1.7 0 0 0-.606.704 3.5 3.5 0 0 0-.302 1.005 8.5 8.5 0 0 0-.078 1.172v.284q0 .615.078 1.181.077.567.293 1.006.224.44.615.693.39.255 1.016.254m12.177-.918a.9.9 0 0 0-.176-.547q-.175-.243-.654-.449-.469-.215-1.358-.39a11 11 0 0 1-1.494-.44 5.2 5.2 0 0 1-1.191-.654 2.8 2.8 0 0 1-.781-.899 2.5 2.5 0 0 1-.284-1.201q0-.663.284-1.25.293-.585.83-1.035a3.9 3.9 0 0 1 1.328-.713q.791-.264 1.777-.263 1.377 0 2.363.439.996.44 1.524 1.211.537.762.537 1.738h-2.813q0-.41-.175-.732a1.16 1.16 0 0 0-.528-.518q-.351-.195-.918-.195-.468 0-.81.166a1.24 1.24 0 0 0-.528.43 1.03 1.03 0 0 0-.175.586 1 1 0 0 0 .097.439q.108.186.342.342t.606.293q.38.127.937.234 1.143.234 2.041.615.898.372 1.426 1.016.527.635.527 1.67a2.7 2.7 0 0 1-.312 1.289 3.1 3.1 0 0 1-.899 1.025q-.585.43-1.406.674a6.6 6.6 0 0 1-1.826.235q-1.475 0-2.5-.528-1.016-.527-1.543-1.338-.518-.82-.518-1.679h2.666q.02.576.293.927.284.352.713.508.44.156.947.156.548 0 .909-.146.361-.156.547-.41a1 1 0 0 0 .195-.606"/><path fill="#fff" stroke="#000" stroke-width="4" d="M596.001 443.256c25.317 0 46.376 17.863 51.101 41.637l.299 1.5 1.526.106c17.756 1.219 31.706 15.701 31.706 33.518 0 18.642-15.26 33.8-34.096 33.8h-93.851c-22.807 0-41.316-18.381-41.316-40.96 0-20.75 15.599-37.953 35.864-40.571l.969-.114 1.063-.112.498-.947a52.17 52.17 0 0 1 46.237-27.857Z"/><path fill="#572961" d="M561.407 490.102v2.285h-7.159v-2.285zm-6.211-11.933v14.218h-2.93v-14.218zm7.665 9.042v-.205q0-1.161.332-2.138a5 5 0 0 1 .967-1.709 4.3 4.3 0 0 1 1.563-1.123q.927-.41 2.129-.41 1.2 0 2.138.41a4.3 4.3 0 0 1 1.572 1.123q.645.722.977 1.709.332.977.332 2.138v.205a6.7 6.7 0 0 1-.332 2.139 5 5 0 0 1-.977 1.709 4.3 4.3 0 0 1-1.562 1.123q-.927.4-2.129.401-1.202 0-2.139-.401a4.4 4.4 0 0 1-1.572-1.123 5.1 5.1 0 0 1-.967-1.709 6.7 6.7 0 0 1-.332-2.139m2.813-.205v.205q0 .665.117 1.241t.371 1.015q.264.43.684.674t1.025.244q.586 0 1.006-.244t.674-.674q.254-.44.371-1.015a5.7 5.7 0 0 0 .127-1.241v-.205q0-.644-.127-1.211a3.2 3.2 0 0 0-.381-1.015 1.9 1.9 0 0 0-.674-.703q-.42-.255-1.015-.254-.596 0-1.016.254a2 2 0 0 0-.674.703 3.4 3.4 0 0 0-.371 1.015 6 6 0 0 0-.117 1.211m12.343 2.647 2.197-7.832h1.788l-.577 3.076-2.197 7.49h-1.494zm-1.113-7.832 1.572 7.822.147 2.744h-1.758l-2.676-10.566zm7.109 7.695 1.533-7.695h2.725l-2.676 10.566h-1.748zm-1.767-7.695 2.187 7.773.303 2.793h-1.504l-2.197-7.48-.557-3.086zm13.388 3.359v2.207h-5.518v-2.207zm7.109 5.205q.518 0 .918-.195.4-.206.625-.566.234-.372.244-.87h2.647a3.53 3.53 0 0 1-.596 1.983 4.1 4.1 0 0 1-1.572 1.357q-.987.489-2.207.489-1.231 0-2.149-.411a4.2 4.2 0 0 1-1.514-1.132 5 5 0 0 1-.908-1.7 7 7 0 0 1-.302-2.089v-.284q0-1.122.302-2.089a4.9 4.9 0 0 1 .908-1.7 4.15 4.15 0 0 1 1.514-1.142q.909-.41 2.129-.41 1.299 0 2.275.498a3.7 3.7 0 0 1 1.543 1.425q.567.918.577 2.178h-2.647a2.2 2.2 0 0 0-.225-.957 1.6 1.6 0 0 0-.605-.684q-.39-.263-.967-.263-.615 0-1.006.263-.39.255-.605.704a3.5 3.5 0 0 0-.303 1.005 8.5 8.5 0 0 0-.078 1.172v.284q0 .615.078 1.181t.293 1.006q.225.44.615.693.391.255 1.016.254m6.015-3.174v-.205q0-1.161.332-2.138a5 5 0 0 1 .967-1.709 4.3 4.3 0 0 1 1.563-1.123q.928-.41 2.128-.41 1.202 0 2.139.41a4.3 4.3 0 0 1 1.572 1.123q.645.722.977 1.709.332.977.332 2.138v.205a6.7 6.7 0 0 1-.332 2.139 5 5 0 0 1-.977 1.709 4.3 4.3 0 0 1-1.562 1.123q-.928.4-2.129.401-1.202 0-2.139-.401a4.4 4.4 0 0 1-1.572-1.123 5.1 5.1 0 0 1-.967-1.709 6.7 6.7 0 0 1-.332-2.139m2.813-.205v.205q0 .665.117 1.241t.371 1.015q.264.43.684.674t1.025.244q.586 0 1.006-.244t.674-.674q.254-.44.371-1.015.126-.576.127-1.241v-.205q0-.644-.127-1.211a3.2 3.2 0 0 0-.381-1.015 1.9 1.9 0 0 0-.674-.703q-.42-.255-1.016-.254-.595 0-1.015.254a2 2 0 0 0-.674.703 3.4 3.4 0 0 0-.371 1.015 6 6 0 0 0-.117 1.211m15.038 2.461a.9.9 0 0 0-.175-.547q-.177-.243-.655-.449-.469-.214-1.357-.39a11 11 0 0 1-1.494-.44 5.2 5.2 0 0 1-1.192-.654 2.85 2.85 0 0 1-.781-.899 2.5 2.5 0 0 1-.283-1.201q0-.663.283-1.25.293-.585.83-1.035a3.9 3.9 0 0 1 1.328-.713q.792-.263 1.778-.263 1.377 0 2.363.439.996.44 1.523 1.211.537.762.537 1.738h-2.812q0-.41-.176-.732a1.16 1.16 0 0 0-.527-.518q-.352-.195-.918-.195-.47 0-.811.166a1.24 1.24 0 0 0-.527.43 1.03 1.03 0 0 0-.176.586 1 1 0 0 0 .098.439q.106.186.342.342.234.156.605.293.381.127.938.234a11 11 0 0 1 2.041.615q.899.371 1.425 1.016.528.635.528 1.67 0 .703-.313 1.289a3.1 3.1 0 0 1-.898 1.025q-.587.43-1.406.674a6.6 6.6 0 0 1-1.827.235q-1.474 0-2.5-.528-1.015-.526-1.543-1.338-.517-.82-.517-1.679h2.666q.02.576.293.927.283.352.713.508.439.156.947.156.547 0 .908-.146.361-.156.547-.41a1 1 0 0 0 .195-.606m10.137-7.646v1.992h-6.153v-1.992zm-4.629-2.608h2.812v9.991q0 .459.117.703a.7.7 0 0 0 .372.342q.243.087.615.087.264 0 .469-.019.214-.03.361-.059l.01 2.071q-.362.117-.782.185-.42.069-.927.069-.928 0-1.621-.303a2.23 2.23 0 0 1-1.055-.996q-.372-.684-.371-1.797zm-58.079 34.172q.517 0 .918-.195.4-.206.625-.566.234-.372.244-.87h2.646a3.5 3.5 0 0 1-.595 1.983 4.1 4.1 0 0 1-1.572 1.357q-.987.489-2.208.489-1.23 0-2.148-.411a4.2 4.2 0 0 1-1.514-1.132 5 5 0 0 1-.908-1.7 7 7 0 0 1-.303-2.089v-.284q0-1.122.303-2.089a4.9 4.9 0 0 1 .908-1.7 4.15 4.15 0 0 1 1.514-1.142q.909-.41 2.129-.41 1.299 0 2.275.498a3.7 3.7 0 0 1 1.543 1.425q.567.918.576 2.178h-2.646a2.2 2.2 0 0 0-.225-.957 1.6 1.6 0 0 0-.605-.684q-.39-.263-.967-.263-.615 0-1.006.263-.39.255-.605.704a3.5 3.5 0 0 0-.303 1.005 8.5 8.5 0 0 0-.078 1.172v.284q0 .615.078 1.181t.293 1.006q.225.44.615.693.391.255 1.016.254m9.433-12.998v15h-2.822v-15zm2.275 9.824v-.205q0-1.161.332-2.138a4.9 4.9 0 0 1 .967-1.709 4.3 4.3 0 0 1 1.562-1.123q.929-.41 2.129-.41 1.202 0 2.139.41a4.3 4.3 0 0 1 1.572 1.123 4.9 4.9 0 0 1 .977 1.709q.332.977.332 2.138v.205a6.7 6.7 0 0 1-.332 2.139 5 5 0 0 1-.977 1.709 4.3 4.3 0 0 1-1.562 1.123q-.928.4-2.129.401-1.202 0-2.139-.401a4.4 4.4 0 0 1-1.572-1.123 5.1 5.1 0 0 1-.967-1.709 6.7 6.7 0 0 1-.332-2.139m2.813-.205v.205q0 .665.117 1.241t.371 1.015q.264.43.683.674t1.026.244q.586 0 1.006-.244t.674-.674q.254-.44.371-1.015.126-.576.127-1.241v-.205q0-.644-.127-1.211a3.2 3.2 0 0 0-.381-1.015 1.9 1.9 0 0 0-.674-.703q-.42-.255-1.016-.254-.595 0-1.015.254a2 2 0 0 0-.674.703 3.4 3.4 0 0 0-.371 1.015 6 6 0 0 0-.117 1.211m15.575 2.852v-8.037h2.813v10.566H604.3zm.313-2.168.83-.02q0 1.056-.244 1.963a4.7 4.7 0 0 1-.733 1.563 3.4 3.4 0 0 1-1.23 1.025q-.743.362-1.748.362-.771 0-1.426-.215a2.9 2.9 0 0 1-1.113-.694q-.459-.479-.723-1.22-.254-.753-.254-1.807v-6.826h2.813v6.846q0 .468.107.791.117.321.322.527.206.205.479.293.283.087.625.088.869 0 1.367-.352a1.85 1.85 0 0 0 .713-.957q.215-.615.215-1.367m11.289 2.393v-12.696h2.832v15h-2.549zm-6.68-2.852v-.205q0-1.211.273-2.197.274-.996.801-1.709a3.66 3.66 0 0 1 1.299-1.104q.771-.39 1.758-.39.928 0 1.621.39.704.392 1.191 1.113.498.714.801 1.69.303.966.439 2.119v.449q-.136 1.104-.439 2.051a6.1 6.1 0 0 1-.801 1.66 3.5 3.5 0 0 1-1.191 1.094q-.703.39-1.641.391-.986 0-1.758-.401a3.74 3.74 0 0 1-1.289-1.123 5.4 5.4 0 0 1-.791-1.699 8 8 0 0 1-.273-2.129m2.812-.205v.205q0 .654.098 1.221.108.566.342 1.006.244.43.625.673.39.235.947.235.723 0 1.191-.322.47-.333.713-.909.255-.576.293-1.328v-1.279a4.6 4.6 0 0 0-.175-1.104 2.4 2.4 0 0 0-.411-.849 1.8 1.8 0 0 0-.664-.547 2.05 2.05 0 0 0-.927-.195q-.547 0-.938.253-.39.245-.635.674a3.6 3.6 0 0 0-.351 1.016 7 7 0 0 0-.108 1.25m-46.14 25.441a.9.9 0 0 0-.176-.547q-.176-.243-.654-.449-.469-.215-1.358-.39a11 11 0 0 1-1.494-.44 5.2 5.2 0 0 1-1.191-.654 2.85 2.85 0 0 1-.782-.899 2.5 2.5 0 0 1-.283-1.201q0-.663.283-1.25.293-.585.831-1.035a3.9 3.9 0 0 1 1.328-.713q.79-.264 1.777-.263 1.377 0 2.363.439.996.44 1.524 1.211.537.762.537 1.738h-2.813q0-.41-.175-.732a1.16 1.16 0 0 0-.528-.518q-.351-.195-.918-.195-.468 0-.81.166a1.24 1.24 0 0 0-.528.43 1.03 1.03 0 0 0-.175.586 1 1 0 0 0 .097.439q.108.186.342.342t.605.293q.381.127.938.234 1.143.234 2.041.615.898.372 1.426 1.016.527.635.527 1.67a2.7 2.7 0 0 1-.312 1.289 3.1 3.1 0 0 1-.899 1.025q-.585.43-1.406.674a6.6 6.6 0 0 1-1.826.235q-1.475 0-2.5-.528-1.016-.527-1.543-1.338-.518-.82-.518-1.679h2.666q.02.576.293.927.284.352.713.508.44.156.947.156.548 0 .909-.146a1.3 1.3 0 0 0 .546-.41 1 1 0 0 0 .196-.606m10.136-7.646v1.992h-6.152v-1.992zm-4.629-2.608h2.813v9.991q0 .459.117.703a.7.7 0 0 0 .371.342q.245.087.615.087.264 0 .469-.019a6 6 0 0 0 .361-.059l.01 2.071q-.361.117-.781.185-.42.069-.928.069-.928 0-1.621-.303a2.24 2.24 0 0 1-1.055-.996q-.37-.684-.371-1.797zm5.927 7.998v-.205q0-1.161.333-2.138a4.9 4.9 0 0 1 .966-1.709 4.3 4.3 0 0 1 1.563-1.123q.927-.41 2.129-.41t2.138.41a4.3 4.3 0 0 1 1.573 1.123q.644.722.976 1.709.332.977.332 2.138v.205q0 1.153-.332 2.139a5 5 0 0 1-.976 1.709 4.3 4.3 0 0 1-1.563 1.123q-.927.4-2.129.401-1.201 0-2.138-.401a4.4 4.4 0 0 1-1.573-1.123 5.1 5.1 0 0 1-.966-1.709 6.6 6.6 0 0 1-.333-2.139m2.813-.205v.205q0 .665.117 1.241t.371 1.015q.264.43.684.674t1.025.244q.586 0 1.006-.244t.674-.674q.254-.44.371-1.015a5.7 5.7 0 0 0 .127-1.241v-.205q0-.644-.127-1.211a3.2 3.2 0 0 0-.381-1.015 1.9 1.9 0 0 0-.674-.703q-.42-.255-1.015-.254-.596 0-1.016.254a2 2 0 0 0-.674.703 3.4 3.4 0 0 0-.371 1.015 6 6 0 0 0-.117 1.211m12.138-2.88v8.261h-2.812v-10.566h2.646zm3.184-2.373-.049 2.607a7 7 0 0 0-.498-.049 5 5 0 0 0-.518-.029q-.596 0-1.035.156a1.84 1.84 0 0 0-.722.44 1.9 1.9 0 0 0-.43.712q-.137.42-.156.957l-.567-.175q0-1.026.205-1.885.206-.87.596-1.514.4-.644.977-.996a2.5 2.5 0 0 1 1.318-.351q.234 0 .478.039.245.028.401.088m7.099 8.251v-4.707q0-.507-.166-.869a1.24 1.24 0 0 0-.518-.576q-.341-.205-.888-.205-.47 0-.811.166a1.17 1.17 0 0 0-.527.459 1.26 1.26 0 0 0-.186.693h-2.812q0-.673.312-1.279.313-.606.909-1.064a4.5 4.5 0 0 1 1.416-.733 6.1 6.1 0 0 1 1.855-.263q1.23 0 2.188.41a3.33 3.33 0 0 1 1.503 1.23q.557.82.557 2.051v4.521q0 .87.108 1.426.106.548.312.957v.166h-2.842a4 4 0 0 1-.312-1.074 9 9 0 0 1-.098-1.309m.371-4.052.02 1.592h-1.573a3.3 3.3 0 0 0-.966.126 1.8 1.8 0 0 0-.674.362q-.264.225-.391.527a1.8 1.8 0 0 0-.117.664q0 .361.166.655.166.282.479.449.312.156.732.156.635 0 1.103-.254.47-.254.723-.625.264-.371.274-.703l.742 1.191a5 5 0 0 1-.43.83q-.264.43-.674.811a3.5 3.5 0 0 1-.986.615q-.576.234-1.367.235-1.007 0-1.826-.401a3.33 3.33 0 0 1-1.29-1.123 2.95 2.95 0 0 1-.468-1.64q0-.83.312-1.475.313-.645.918-1.084.615-.45 1.533-.674.918-.234 2.129-.234zm11.719-4.131h2.548v10.215q0 1.444-.644 2.451a4 4 0 0 1-1.777 1.533q-1.143.528-2.657.527a6 6 0 0 1-1.406-.175 5.7 5.7 0 0 1-1.406-.547 3.7 3.7 0 0 1-1.114-.938l1.241-1.66q.488.567 1.133.879.643.322 1.425.322.762 0 1.289-.283.528-.273.811-.81.283-.528.283-1.28v-7.793zm-7.11 5.41v-.205q0-1.211.293-2.197.303-.996.85-1.709.557-.713 1.347-1.104.791-.39 1.788-.39 1.054 0 1.767.39.713.391 1.172 1.113.46.714.713 1.69.264.966.41 2.119v.449q-.147 1.104-.439 2.051a6.3 6.3 0 0 1-.772 1.66 3.4 3.4 0 0 1-1.191 1.094q-.703.39-1.68.391a3.86 3.86 0 0 1-1.768-.401 3.95 3.95 0 0 1-1.337-1.123 5.3 5.3 0 0 1-.86-1.699 7.4 7.4 0 0 1-.293-2.129m2.813-.205v.205q0 .654.127 1.221.126.566.39 1.006.274.43.674.673.41.235.967.235.771 0 1.26-.322.487-.333.732-.909.244-.576.283-1.328v-1.279a4.3 4.3 0 0 0-.166-1.104 2.6 2.6 0 0 0-.41-.849 1.8 1.8 0 0 0-.683-.547q-.42-.195-.997-.195-.556 0-.966.253a2.1 2.1 0 0 0-.674.674 3.4 3.4 0 0 0-.401 1.016 5.4 5.4 0 0 0-.136 1.25m14.296 5.557q-1.23 0-2.207-.391a4.85 4.85 0 0 1-1.66-1.104 4.9 4.9 0 0 1-1.035-1.63 5.5 5.5 0 0 1-.362-1.993v-.39q0-1.201.342-2.197a5.2 5.2 0 0 1 .977-1.729q.644-.733 1.562-1.123.918-.4 2.071-.4 1.122 0 1.992.371a3.9 3.9 0 0 1 1.455 1.054q.596.684.898 1.641.303.947.303 2.109v1.172h-8.398v-1.875h5.634v-.215q0-.585-.214-1.045a1.67 1.67 0 0 0-.625-.742q-.42-.273-1.075-.273-.557 0-.957.244a1.9 1.9 0 0 0-.654.684 3.7 3.7 0 0 0-.371 1.035q-.117.585-.117 1.289v.39q0 .635.176 1.172.185.537.517.928.342.39.82.605.489.216 1.104.215.762 0 1.416-.293a3.05 3.05 0 0 0 1.143-.908l1.367 1.485a4.2 4.2 0 0 1-.908.917 4.9 4.9 0 0 1-1.368.723q-.8.274-1.826.274"/><defs><linearGradient id="b" x1="324.489" x2="324.489" y1="344.791" y2="385.236" gradientUnits="userSpaceOnUse"><stop offset="0.296875" stop-color="#6D3B78"/><stop offset="1" stop-color="#B062C2"/></linearGradient><clipPath id="a"><path fill="#fff" d="M302.488 344.786h44v41h-44z"/></clipPath></defs></svg>