<svg width="35" height="35" viewBox="0 0 313 313" fill="none" xmlns="http://www.w3.org/2000/svg">
<g clip-path="url(#clip0_22_2)">
<path d="M156.5 313C70.0676 313 0 242.932 0 156.5C0 70.0676 70.0676 0 156.5 0C242.932 0 313 70.0676 313 156.5C313 242.932 242.932 313 156.5 313Z" fill="url(#paint0_linear_22_2)"/>
<path d="M155.818 24.0234C177.591 24.0241 195.242 42.2832 195.242 64.8073C195.242 64.88 195.241 64.9538 195.241 65.0264V89.277H195.155C194.895 93.6672 193.871 97.959 192.294 102.059C191.857 103.194 191.257 104.26 190.739 105.36C193.251 108.03 194.159 111.721 194.331 115.27C194.239 120.693 191.531 125.845 186.743 128.562C185.957 129.009 185.088 129.291 184.261 129.656L184.143 130.817C184.391 132.031 184.302 131.379 184.373 132.78V202.313L184.367 202.455C184.367 202.473 184.367 202.505 184.367 202.551C184.366 202.686 184.368 202.937 184.381 203.286C184.407 203.988 184.477 205.064 184.656 206.383C185.022 209.077 185.803 212.481 187.374 215.746C188.918 218.952 191.137 221.856 194.39 223.998C197.599 226.111 202.504 227.941 210.202 227.941C216.209 227.941 221.078 232.81 221.078 238.816C221.078 244.823 216.209 249.692 210.202 249.692C198.868 249.692 189.669 246.933 182.427 242.164C175.229 237.424 170.651 231.152 167.776 225.182C164.93 219.27 163.672 213.499 163.103 209.31C162.815 207.189 162.693 205.396 162.644 204.091C162.621 203.437 162.615 202.899 162.616 202.497C162.616 202.295 162.618 202.128 162.621 201.996L162.621 201.976V156.647L162.569 156.662C162.599 156.392 162.615 156.118 162.615 155.838C162.615 152.113 159.876 149.093 156.498 149.093C152.802 149.183 150.539 152.367 150.38 155.825V155.877C150.385 156.155 150.38 156.01 150.394 156.312L150.38 156.307V219.648V219.668C150.383 219.801 150.385 219.968 150.386 220.169C150.387 220.572 150.381 221.109 150.357 221.764C150.308 223.069 150.187 224.861 149.899 226.983C149.33 231.171 148.072 236.942 145.225 242.855C142.351 248.825 137.772 255.097 130.575 259.837C123.333 264.606 114.134 267.365 102.8 267.365C96.7929 267.365 91.9238 262.495 91.9238 256.489C91.9238 250.483 96.7929 245.614 102.8 245.614C110.497 245.614 115.403 243.784 118.611 241.671C121.865 239.528 124.084 236.624 125.627 233.419C127.199 230.155 127.98 226.749 128.346 224.055C128.525 222.736 128.594 221.661 128.621 220.959C128.633 220.61 128.636 220.359 128.635 220.223C128.635 220.179 128.634 220.146 128.634 220.128L128.629 219.985V129.412C122.517 126.955 119.425 121.707 119.113 115.27C119.159 112.057 119.892 109.564 121.633 106.875C118.466 101.512 117.065 95.405 116.479 89.277H116.394V64.8067H116.394C116.394 42.2832 134.045 24.0234 155.818 24.0234ZM179.832 106.2C175.028 106.2 171.133 110.261 171.133 115.27C171.133 120.279 175.028 124.34 179.832 124.34C184.637 124.34 188.531 120.279 188.531 115.27C188.531 110.261 184.637 106.2 179.832 106.2ZM133.611 106.2C128.807 106.2 124.912 110.261 124.912 115.27C124.912 120.279 128.807 124.34 133.611 124.34C138.416 124.34 142.311 120.279 142.311 115.27C142.311 110.261 138.416 106.2 133.611 106.2Z" fill="white"/>
<path d="M209.988 132.781C215.995 132.781 220.864 137.65 220.864 143.656V177.643C220.864 183.649 215.995 188.518 209.988 188.518C203.982 188.518 199.113 183.649 199.113 177.643V143.656C199.113 137.65 203.982 132.781 209.988 132.781Z" fill="white"/>
<path d="M246.44 91.9961C252.447 91.9961 257.316 96.8657 257.316 102.872V183.079C257.316 189.086 252.447 193.955 246.44 193.955C240.434 193.955 235.564 189.086 235.564 183.079V102.872C235.564 96.8657 240.434 91.9961 246.44 91.9961Z" fill="white"/>
<path d="M283.443 111.029C289.45 111.029 294.319 115.898 294.319 121.905V146.375C294.319 152.382 289.45 157.251 283.443 157.251C277.437 157.251 272.568 152.382 272.568 146.375V121.905C272.568 115.898 277.437 111.029 283.443 111.029Z" fill="white"/>
<path d="M29.8501 152.422C35.8566 152.422 40.7262 157.291 40.7262 163.298V187.768C40.7262 193.774 35.8566 198.644 29.8501 198.644C23.8436 198.644 18.9746 193.774 18.9746 187.768V163.298C18.9746 157.291 23.8436 152.422 29.8501 152.422Z" fill="white"/>
<path d="M66.3013 106.201C72.3077 106.201 77.1768 111.07 77.1768 117.077V195.924C77.1768 201.931 72.3077 206.801 66.3013 206.801C60.2948 206.801 55.4258 201.931 55.4258 195.924V117.077C55.4258 111.07 60.2948 106.201 66.3013 106.201Z" fill="white"/>
<path d="M102.752 130.67C108.759 130.67 113.628 135.539 113.628 141.545V183.688C113.628 189.695 108.759 194.564 102.752 194.564C96.7466 194.564 91.877 189.695 91.877 183.688V141.545C91.877 135.539 96.7466 130.67 102.752 130.67Z" fill="white"/>
<path d="M138.144 120.545C138.144 122.798 136.319 124.624 134.066 124.624C131.814 124.624 129.988 122.798 129.988 120.545C129.988 118.293 131.814 116.467 134.066 116.467C136.319 116.467 138.144 118.293 138.144 120.545Z" fill="white"/>
<path d="M184.366 120.545C184.366 122.798 182.54 124.624 180.287 124.624C178.035 124.624 176.209 122.798 176.209 120.545C176.209 118.293 178.035 116.467 180.287 116.467C182.54 116.467 184.366 118.293 184.366 120.545Z" fill="white"/>
</g>
<defs>
<linearGradient id="paint0_linear_22_2" x1="313" y1="156.5" x2="0" y2="156.5" gradientUnits="userSpaceOnUse">
<stop stop-color="#6D3B78"/>
<stop offset="1" stop-color="#AA5FBB"/>
</linearGradient>
<clipPath id="clip0_22_2">
<rect width="313" height="313" fill="white"/>
</clipPath>
</defs>
</svg>
